<svg width="13" height="14" viewBox="0 0 13 14" fill="none" xmlns="http://www.w3.org/2000/svg">
<g clip-path="url(#clip0_101_2799)">
<path fill-rule="evenodd" clip-rule="evenodd" d="M12.4836 0.766982C13.0975 1.47825 13.1485 2.53956 12.7196 3.55305C11.6865 2.34992 10.4936 1.30856 9.17924 0.415855C10.4158 -0.184204 11.7472 -0.0866535 12.4836 0.766982ZM6.96566 5.81119C7.1447 5.90677 7.28943 6.05493 7.37994 6.23528L9.11935 6.20522C9.37549 6.20057 9.58691 6.4025 9.5916 6.65635C9.59574 6.90993 9.39177 7.11924 9.13563 7.12389L7.3482 7.15476C7.17818 7.44277 6.8627 7.6365 6.50141 7.6365C5.96016 7.6365 5.5213 7.20176 5.5213 6.66592C5.5213 6.29621 5.73024 5.97487 6.03744 5.81119L6.03772 3.19154C6.03772 2.93769 6.245 2.73193 6.50141 2.73193C6.75782 2.73193 6.96566 2.93769 6.96566 3.19154V5.81119ZM10.5883 2.62017C11.6341 3.65552 12.2808 5.08626 12.2808 6.66592C12.2808 8.24585 11.6341 9.67632 10.5883 10.7117C9.54219 11.7473 8.09729 12.3878 6.50141 12.3878C4.90553 12.3878 3.4609 11.7473 2.41483 10.7117C1.36903 9.67632 0.722344 8.24585 0.722344 6.66592C0.722344 5.08598 1.36931 3.65552 2.41483 2.62017C3.35188 1.69276 4.6091 1.08286 6.00791 0.965089C6.43075 0.929293 6.86602 0.940496 7.28527 0.996786C8.56761 1.16893 9.71636 1.75724 10.5883 2.62017ZM2.51309 11.6257L3.8796 12.5315L3.13079 13.6387C2.87797 14.0123 2.36708 14.1123 1.98977 13.8622C1.61247 13.612 1.51173 13.1067 1.76428 12.7329L2.51309 11.6257ZM11.2388 12.7329C11.4916 13.1067 11.3909 13.612 11.0133 13.8622C10.636 14.1123 10.1251 14.0123 9.8723 13.6387L9.12349 12.5315L10.49 11.6257L11.2388 12.7329ZM0.526102 0.747581C1.27629 -0.122176 2.63287 -0.221639 3.89313 0.389896C2.55394 1.29955 1.33812 2.36031 0.285974 3.58638C-0.151223 2.55377 -0.0993334 1.47224 0.526102 0.747581Z" fill="black"/>
</g>
<defs>
<clipPath id="clip0_101_2799">
<rect width="13" height="14" fill="white"/>
</clipPath>
</defs>
</svg>
