<svg width="16" height="16" viewBox="0 0 16 16" fill="none" xmlns="http://www.w3.org/2000/svg">
<path d="M13.6602 15.5H1.66309C1.56543 15.5 1.47021 15.4805 1.37744 15.4414C1.28467 15.4023 1.2041 15.3486 1.13574 15.2803C1.06738 15.2119 1.01367 15.1313 0.974609 15.0386C0.935547 14.9458 0.916016 14.8506 0.916016 14.7529V1.24707C0.916016 1.14941 0.935547 1.0542 0.974609 0.961426C1.01367 0.868652 1.06738 0.788086 1.13574 0.719727C1.2041 0.651367 1.28467 0.597656 1.37744 0.558594C1.47021 0.519531 1.56543 0.5 1.66309 0.5H13.6602C13.7676 0.5 13.8652 0.519531 13.9531 0.558594C14.041 0.597656 14.124 0.651367 14.2021 0.719727C14.2705 0.788086 14.3242 0.868652 14.3633 0.961426C14.4023 1.0542 14.4219 1.14941 14.4219 1.24707V14.7529C14.4219 14.8506 14.4023 14.9458 14.3633 15.0386C14.3242 15.1313 14.2705 15.2119 14.2021 15.2803C14.124 15.3486 14.041 15.4023 13.9531 15.4414C13.8652 15.4805 13.7676 15.5 13.6602 15.5ZM12.9131 14.0059V1.99414H2.41016V14.0059H12.9131ZM5.41309 3.50293V4.99707C5.41309 5.2998 5.47168 5.58789 5.58887 5.86133C5.70605 6.13477 5.86719 6.37891 6.07227 6.59375C6.28711 6.79883 6.53125 6.95996 6.80469 7.07715C7.07812 7.19434 7.36621 7.25293 7.66895 7.25293C7.96191 7.25293 8.24756 7.19434 8.52588 7.07715C8.8042 6.95996 9.0459 6.79883 9.25098 6.59375C9.46582 6.37891 9.62939 6.13477 9.7417 5.86133C9.854 5.58789 9.91016 5.2998 9.91016 4.99707V3.50293H11.4189V4.99707C11.4189 5.49512 11.3237 5.97363 11.1333 6.43262C10.9429 6.8916 10.6719 7.29688 10.3203 7.64844C9.96875 8 9.56348 8.271 9.10449 8.46143C8.64551 8.65186 8.16699 8.74707 7.66895 8.74707C7.1709 8.74707 6.69238 8.65186 6.2334 8.46143C5.77441 8.271 5.36914 8 5.01758 7.64844C4.66602 7.29688 4.39502 6.8916 4.20459 6.43262C4.01416 5.97363 3.91895 5.49512 3.91895 4.99707V3.50293H5.41309Z" fill="black"/>
</svg>
