<svg width="30" height="30" viewBox="0 0 30 30" fill="none" xmlns="http://www.w3.org/2000/svg">
<rect x="0.5" y="0.5" width="29" height="29" rx="14.5" stroke="#FF3200"/>
<path d="M8.08008 20.1211C7.92383 20.1914 7.7793 20.2207 7.64648 20.209C7.51367 20.1973 7.42773 20.1484 7.38867 20.0625C7.34961 19.9766 7.36914 19.877 7.44727 19.7637C7.52539 19.6504 7.63867 19.5586 7.78711 19.4883L21.9316 12.7148C22.0801 12.6445 22.2227 12.6152 22.3594 12.627C22.4961 12.6387 22.584 12.6875 22.623 12.7734C22.6621 12.8594 22.6426 12.959 22.5645 13.0723C22.4863 13.1855 22.3691 13.2812 22.2129 13.3594L8.08008 20.1211ZM21.9316 20.1211C22.0801 20.1914 22.2227 20.2207 22.3594 20.209C22.4961 20.1973 22.584 20.1484 22.623 20.0625C22.6621 19.9766 22.6426 19.877 22.5645 19.7637C22.4863 19.6504 22.3691 19.5586 22.2129 19.4883L8.08008 12.7148C7.92383 12.6445 7.7793 12.6152 7.64648 12.627C7.51367 12.6387 7.42773 12.6875 7.38867 12.7734C7.34961 12.8594 7.36914 12.959 7.44727 13.0723C7.52539 13.1855 7.63867 13.2812 7.78711 13.3594L21.9316 20.1211ZM15.3105 9.62109L20.8418 20.9766H9.16992L15.0059 9L15.2988 9.62109H15.3105ZM19.7285 20.2734L15.0059 10.5586L10.2715 20.2734H19.7285Z" fill="#FF3200"/>
</svg>
