<svg width="30" height="30" viewBox="0 0 30 30" fill="none" xmlns="http://www.w3.org/2000/svg">
<rect x="0.5" y="0.5" width="29" height="29" rx="14.5" stroke="#FF3200"/>
<path d="M14.9896 15.7142C15.2474 15.7142 15.468 15.6205 15.6516 15.4331C15.8351 15.2456 15.9269 15.0152 15.9269 14.7418C15.9269 14.4763 15.8351 14.2498 15.6516 14.0623C15.468 13.8749 15.2474 13.7812 14.9896 13.7812C14.7319 13.7812 14.5113 13.8749 14.3277 14.0623C14.1442 14.2498 14.0524 14.4763 14.0524 14.7418C14.0524 15.0074 14.1442 15.2358 14.3277 15.4272C14.5113 15.6185 14.7319 15.7142 14.9896 15.7142ZM20.5896 9.00125V20.4941H9.38965V9.00125H20.5896ZM19.8984 9.70418H10.0809V19.7912H19.8984V9.70418ZM14.9896 9.00125C15.3724 9.00125 15.7472 9.04031 16.1143 9.11841C16.4814 9.19651 16.8329 9.30781 17.1687 9.4523C17.5046 9.59679 17.8209 9.77448 18.1177 9.98535C18.4145 10.1884 18.6917 10.4227 18.9495 10.6883C19.1994 10.946 19.4259 11.2272 19.629 11.5318C19.832 11.8442 20.0039 12.1722 20.1445 12.5159C20.285 12.8596 20.3944 13.2188 20.4725 13.5937C20.5506 13.9686 20.5896 14.3513 20.5896 14.7418C20.5896 15.1402 20.5506 15.5268 20.4725 15.9017C20.3944 16.2766 20.285 16.6358 20.1445 16.9795C20.0039 17.3232 19.832 17.6512 19.629 17.9636C19.4259 18.2682 19.1994 18.5494 18.9495 18.8071C18.6917 19.0649 18.4145 19.2992 18.1177 19.51C17.8209 19.7209 17.5046 19.8986 17.1687 20.0431C16.8329 20.1876 16.4814 20.2989 16.1143 20.377C15.7472 20.4551 15.3724 20.4941 14.9896 20.4941C14.5991 20.4941 14.2242 20.4551 13.865 20.377C13.4979 20.2989 13.1464 20.1876 12.8106 20.0431C12.4747 19.8986 12.1584 19.7209 11.8616 19.51C11.557 19.2992 11.2797 19.0649 11.0298 18.8071C10.7799 18.5494 10.5534 18.2682 10.3503 17.9636C10.1472 17.6512 9.97347 17.3232 9.82898 16.9795C9.68449 16.6358 9.5771 16.2766 9.5068 15.9017C9.4287 15.5268 9.38965 15.1402 9.38965 14.7418C9.38965 14.3513 9.4287 13.9686 9.5068 13.5937C9.5771 13.211 9.68449 12.8498 9.82898 12.51C9.97347 12.1703 10.1472 11.8442 10.3503 11.5318C10.5534 11.2272 10.7799 10.946 11.0298 10.6883C11.2797 10.4227 11.557 10.1884 11.8616 9.98535C12.1584 9.77448 12.4747 9.59679 12.8106 9.4523C13.1464 9.30781 13.4979 9.19651 13.865 9.11841C14.2242 9.04031 14.5991 9.00125 14.9896 9.00125ZM18.4574 11.1803C18.2387 10.9538 17.9966 10.7508 17.7311 10.5711C17.4733 10.3837 17.1961 10.2275 16.8993 10.1025C16.6025 9.97754 16.294 9.87992 15.9737 9.80962C15.6535 9.73933 15.3255 9.70418 14.9896 9.70418C14.646 9.70418 14.3141 9.73933 13.9938 9.80962C13.6736 9.87992 13.3671 9.97754 13.0742 10.1025C12.7813 10.2275 12.506 10.3837 12.2482 10.5711C11.9827 10.7508 11.7366 10.9538 11.5102 11.1803C11.2915 11.4068 11.0923 11.6568 10.9127 11.9301C10.7408 12.1957 10.5924 12.4808 10.4675 12.7854C10.3425 13.09 10.2449 13.4063 10.1746 13.7343C10.1121 14.0623 10.0809 14.4021 10.0809 14.7536C10.0809 15.0972 10.1121 15.4331 10.1746 15.7611C10.2449 16.0969 10.3425 16.4152 10.4675 16.7159C10.5924 17.0166 10.7408 17.2997 10.9127 17.5653C11.0923 17.8386 11.2915 18.0886 11.5102 18.3151C11.7366 18.5416 11.9827 18.7446 12.2482 18.9243C12.506 19.1117 12.7813 19.2679 13.0742 19.3929C13.3671 19.5179 13.6736 19.6155 13.9938 19.6858C14.3141 19.7561 14.646 19.7912 14.9896 19.7912C15.3255 19.7912 15.6535 19.7561 15.9737 19.6858C16.294 19.6155 16.6025 19.5179 16.8993 19.3929C17.1961 19.2679 17.4733 19.1117 17.7311 18.9243C17.9966 18.7446 18.2387 18.5416 18.4574 18.3151C18.6839 18.0886 18.8831 17.8386 19.0549 17.5653C19.2346 17.2997 19.3869 17.0166 19.5118 16.7159C19.6368 16.4152 19.7344 16.0969 19.8047 15.7611C19.8672 15.4331 19.8984 15.0972 19.8984 14.7536C19.8984 14.4021 19.8672 14.0623 19.8047 13.7343C19.7344 13.4063 19.6368 13.0919 19.5118 12.7912C19.3869 12.4905 19.2346 12.2035 19.0549 11.9301C18.8831 11.6646 18.6839 11.4146 18.4574 11.1803Z" fill="#FF3200"/>
</svg>
