<svg width="30" height="30" viewBox="0 0 30 30" fill="none" xmlns="http://www.w3.org/2000/svg">
<rect x="0.5" y="0.5" width="29" height="29" rx="14.5" stroke="#FF3200"/>
<path d="M21.8733 9.31641C21.8968 9.20703 21.9534 9.12305 22.0432 9.06445C22.1331 9.00586 22.2288 8.98828 22.3304 9.01172C22.4397 9.03516 22.5218 9.0918 22.5765 9.18164C22.6311 9.27148 22.6507 9.37109 22.635 9.48047L20.4085 19.9219C20.385 20.0156 20.3382 20.0918 20.2679 20.1504C20.1975 20.209 20.1194 20.2383 20.0335 20.2383H9.97879C9.88504 20.2383 9.80301 20.207 9.7327 20.1445C9.66239 20.082 9.61551 20.0039 9.59208 19.9102L7.37723 9.48047C7.35379 9.37109 7.37137 9.27148 7.42997 9.18164C7.48856 9.0918 7.56864 9.03516 7.6702 9.01172C7.77176 8.98828 7.86747 9.00586 7.95731 9.06445C8.04715 9.12305 8.10379 9.20703 8.12723 9.31641L10.2835 19.4414H19.7171L21.8733 9.31641ZM8.19754 11.7539C8.25223 11.7539 8.33231 11.6992 8.43778 11.5898C8.54325 11.4805 8.65067 11.3633 8.76004 11.2383C8.93192 11.043 9.1077 10.8633 9.28739 10.6992C9.46708 10.5352 9.6702 10.4531 9.89676 10.4531C10.1233 10.4531 10.3265 10.5352 10.5061 10.6992C10.6858 10.8633 10.8616 11.043 11.0335 11.2383C11.1507 11.3633 11.26 11.4805 11.3616 11.5898C11.4632 11.6992 11.5413 11.7539 11.596 11.7539C11.6585 11.7539 11.7405 11.6992 11.8421 11.5898C11.9436 11.4805 12.053 11.3633 12.1702 11.2383C12.3343 11.043 12.5061 10.8633 12.6858 10.6992C12.8655 10.5352 13.0725 10.4531 13.3069 10.4531C13.5335 10.4531 13.7366 10.5352 13.9163 10.6992C14.096 10.8633 14.2679 11.043 14.4319 11.2383C14.5491 11.3633 14.6604 11.4805 14.7659 11.5898C14.8714 11.6992 14.9515 11.7539 15.0061 11.7539C15.0608 11.7539 15.1409 11.6992 15.2464 11.5898C15.3518 11.4805 15.4593 11.3633 15.5686 11.2383C15.7405 11.043 15.9163 10.8633 16.096 10.6992C16.2757 10.5352 16.4788 10.4531 16.7054 10.4531C16.9319 10.4531 17.135 10.5352 17.3147 10.6992C17.4944 10.8633 17.6702 11.043 17.8421 11.2383C17.9515 11.3633 18.0589 11.4805 18.1643 11.5898C18.2698 11.6992 18.3499 11.7539 18.4046 11.7539C18.4593 11.7539 18.5393 11.6992 18.6448 11.5898C18.7503 11.4805 18.8577 11.3633 18.9671 11.2383C19.139 11.043 19.3147 10.8633 19.4944 10.6992C19.6741 10.5352 19.8772 10.4531 20.1038 10.4531C20.3304 10.4531 20.5335 10.5352 20.7132 10.6992C20.8929 10.8633 21.0686 11.043 21.2405 11.2383C21.3577 11.3633 21.4671 11.4805 21.5686 11.5898C21.6702 11.6992 21.7483 11.7539 21.803 11.7539V12.5391C21.5765 12.5391 21.3733 12.459 21.1936 12.2988C21.014 12.1387 20.8382 11.9609 20.6663 11.7656C20.5569 11.6328 20.4495 11.5137 20.344 11.4082C20.2386 11.3027 20.1585 11.25 20.1038 11.25C20.0491 11.25 19.969 11.3027 19.8636 11.4082C19.7581 11.5137 19.6507 11.6328 19.5413 11.7656C19.3694 11.9609 19.1936 12.1387 19.014 12.2988C18.8343 12.459 18.6311 12.5391 18.4046 12.5391C18.178 12.5391 17.9749 12.459 17.7952 12.2988C17.6155 12.1387 17.4397 11.9609 17.2679 11.7656C17.1585 11.6328 17.0511 11.5137 16.9456 11.4082C16.8401 11.3027 16.76 11.25 16.7054 11.25C16.6507 11.25 16.5706 11.3027 16.4651 11.4082C16.3597 11.5137 16.2522 11.6328 16.1429 11.7656C15.971 11.9609 15.7952 12.1387 15.6155 12.2988C15.4358 12.459 15.2327 12.5391 15.0061 12.5391C14.7796 12.5391 14.5765 12.459 14.3968 12.2988C14.2171 12.1387 14.0413 11.9609 13.8694 11.7656C13.7522 11.6328 13.6429 11.5137 13.5413 11.4082C13.4397 11.3027 13.3616 11.25 13.3069 11.25C13.2444 11.25 13.1624 11.3027 13.0608 11.4082C12.9593 11.5137 12.8499 11.6328 12.7327 11.7656C12.5608 11.9609 12.385 12.1387 12.2054 12.2988C12.0257 12.459 11.8225 12.5391 11.596 12.5391C11.3694 12.5391 11.1663 12.459 10.9866 12.2988C10.8069 12.1387 10.6311 11.9609 10.4593 11.7656C10.3499 11.6328 10.2425 11.5137 10.137 11.4082C10.0315 11.3027 9.95145 11.25 9.89676 11.25C9.84208 11.25 9.76395 11.3027 9.66239 11.4082C9.56083 11.5137 9.45145 11.6328 9.33426 11.7656C9.16239 11.9609 8.98661 12.1387 8.80692 12.2988C8.62723 12.459 8.42411 12.5391 8.19754 12.5391V11.7539ZM12.0179 17.4141C12.3147 17.4141 12.5647 17.3086 12.7679 17.0977C12.971 16.8867 13.0725 16.6328 13.0725 16.3359C13.0725 16.0391 12.971 15.7852 12.7679 15.5742C12.5647 15.3633 12.3147 15.2578 12.0179 15.2578C11.7288 15.2578 11.4827 15.3633 11.2796 15.5742C11.0765 15.7852 10.9749 16.0391 10.9749 16.3359C10.9749 16.6328 11.0765 16.8867 11.2796 17.0977C11.4827 17.3086 11.7288 17.4141 12.0179 17.4141ZM15.0061 17.4141C15.2952 17.4141 15.5413 17.3086 15.7444 17.0977C15.9475 16.8867 16.0491 16.6328 16.0491 16.3359C16.0491 16.0391 15.9475 15.7852 15.7444 15.5742C15.5413 15.3633 15.2952 15.2578 15.0061 15.2578C14.7171 15.2578 14.469 15.3633 14.262 15.5742C14.055 15.7852 13.9515 16.0391 13.9515 16.3359C13.9515 16.6328 14.055 16.8867 14.262 17.0977C14.469 17.3086 14.7171 17.4141 15.0061 17.4141ZM17.9827 17.4141C18.2718 17.4141 18.5198 17.3086 18.7268 17.0977C18.9339 16.8867 19.0374 16.6328 19.0374 16.3359C19.0374 16.0391 18.9339 15.7852 18.7268 15.5742C18.5198 15.3633 18.2718 15.2578 17.9827 15.2578C17.6936 15.2578 17.4456 15.3633 17.2386 15.5742C17.0315 15.7852 16.928 16.0391 16.928 16.3359C16.928 16.6328 17.0315 16.8867 17.2386 17.0977C17.4456 17.3086 17.6936 17.4141 17.9827 17.4141Z" fill="#FF3200"/>
</svg>
