<svg width="30" height="30" viewBox="0 0 30 30" fill="none" xmlns="http://www.w3.org/2000/svg">
<rect x="0.5" y="0.5" width="29" height="29" rx="14.5" stroke="#FF3200"/>
<path d="M14.9658 18.7734C15.3096 18.7734 15.6025 18.6504 15.8447 18.4043C16.0869 18.1582 16.208 17.8594 16.208 17.5078C16.208 17.1562 16.085 16.8555 15.8389 16.6055C15.5928 16.3555 15.3018 16.2305 14.9658 16.2305C14.6299 16.2305 14.3389 16.3555 14.0928 16.6055C13.8467 16.8555 13.7236 17.1562 13.7236 17.5078C13.7236 17.8594 13.8447 18.1582 14.0869 18.4043C14.3291 18.6504 14.6221 18.7734 14.9658 18.7734ZM11.3916 13.6172H23.415L24.2588 20.4375L24.3291 20.9648H5.66113V20.4961C5.66113 20.082 5.67676 19.6641 5.70801 19.2422C5.74707 18.8281 5.80566 18.4219 5.88379 18.0234C5.96191 17.625 6.07129 17.2422 6.21191 16.875C6.34473 16.5078 6.5166 16.1602 6.72754 15.832C6.93848 15.5039 7.18848 15.2031 7.47754 14.9297C7.7666 14.6562 8.10254 14.4219 8.48535 14.2266C8.86816 14.0313 9.30176 13.8828 9.78613 13.7812C10.2627 13.6719 10.7979 13.6172 11.3916 13.6172ZM22.6182 14.543H11.3916C10.8916 14.543 10.4385 14.5859 10.0322 14.6719C9.62598 14.7578 9.2627 14.8809 8.94238 15.041C8.62207 15.2012 8.34082 15.3906 8.09863 15.6094C7.85645 15.8281 7.64941 16.0742 7.47754 16.3477C7.32129 16.5898 7.18848 16.8555 7.0791 17.1445C6.96191 17.4336 6.86816 17.7344 6.79785 18.0469C6.72754 18.3594 6.67676 18.6836 6.64551 19.0195C6.60645 19.3555 6.58301 19.6914 6.5752 20.0273H23.2979L22.6182 14.543ZM9.3291 9.92578C9.2041 9.92578 9.09863 9.88086 9.0127 9.79102C8.92676 9.70117 8.88379 9.59375 8.88379 9.46875C8.88379 9.33594 8.92676 9.22461 9.0127 9.13477C9.09863 9.04492 9.2041 9 9.3291 9H22.501C22.6182 9 22.7197 9.04102 22.8057 9.12305C22.8916 9.20508 22.9385 9.30469 22.9463 9.42188L24.2705 20.4492C24.2783 20.5742 24.2451 20.6875 24.1709 20.7891C24.0967 20.8906 23.9971 20.9492 23.8721 20.9648C23.7471 20.9805 23.6357 20.9492 23.5381 20.8711C23.4404 20.793 23.3838 20.6875 23.3682 20.5547L22.1025 9.92578H9.3291Z" fill="#FF3200"/>
</svg>
