<svg width="30" height="30" viewBox="0 0 30 30" fill="none" xmlns="http://www.w3.org/2000/svg">
<rect x="0.5" y="0.5" width="29" height="29" rx="14.5" stroke="#FF3200"/>
<path d="M14.8535 9C15.2285 9 15.5957 9.03906 15.9551 9.11719C16.3066 9.1875 16.6445 9.29297 16.9688 9.43359C17.293 9.57422 17.5996 9.74609 17.8887 9.94922C18.1777 10.1523 18.4473 10.3789 18.6973 10.6289C18.9395 10.8867 19.1582 11.1641 19.3535 11.4609C19.5488 11.7578 19.7168 12.0723 19.8574 12.4043C19.998 12.7363 20.1035 13.0859 20.1738 13.4531C20.2441 13.8125 20.2793 14.1875 20.2793 14.5781C20.2793 14.9609 20.2441 15.332 20.1738 15.6914C20.1035 16.0586 19.998 16.4082 19.8574 16.7402C19.7168 17.0723 19.5488 17.3867 19.3535 17.6836C19.1582 17.9805 18.9395 18.2578 18.6973 18.5156C18.4473 18.7656 18.1777 18.9922 17.8887 19.1953C17.5996 19.3984 17.293 19.5703 16.9688 19.7109C16.6445 19.8516 16.3066 19.957 15.9551 20.0273C15.5957 20.1055 15.2285 20.1445 14.8535 20.1445C14.4785 20.1445 14.1152 20.1055 13.7637 20.0273C13.4043 19.957 13.0625 19.8516 12.7383 19.7109C12.4141 19.5703 12.1074 19.3984 11.8184 19.1953C11.5293 18.9922 11.2637 18.7656 11.0215 18.5156C10.7715 18.2578 10.5488 17.9805 10.3535 17.6836C10.1582 17.3867 9.99219 17.0723 9.85547 16.7402C9.71875 16.4082 9.61133 16.0586 9.5332 15.6914C9.46289 15.332 9.42773 14.9609 9.42773 14.5781C9.42773 14.1875 9.46289 13.8125 9.5332 13.4531C9.61133 13.0859 9.71875 12.7363 9.85547 12.4043C9.99219 12.0723 10.1582 11.7578 10.3535 11.4609C10.5488 11.1641 10.7715 10.8867 11.0215 10.6289C11.2637 10.3789 11.5293 10.1523 11.8184 9.94922C12.1074 9.74609 12.4141 9.57422 12.7383 9.43359C13.0625 9.29297 13.4043 9.1875 13.7637 9.11719C14.1152 9.03906 14.4785 9 14.8535 9ZM18.2168 11.1211C18.0059 10.9023 17.7715 10.7031 17.5137 10.5234C17.2637 10.3438 16.9961 10.1934 16.7109 10.0723C16.4258 9.95117 16.127 9.85547 15.8145 9.78516C15.502 9.72266 15.1816 9.69141 14.8535 9.69141C14.5254 9.69141 14.2051 9.72266 13.8926 9.78516C13.5879 9.85547 13.293 9.95117 13.0078 10.0723C12.7227 10.1934 12.4512 10.3438 12.1934 10.5234C11.9434 10.7031 11.709 10.9023 11.4902 11.1211C11.2793 11.3398 11.0879 11.582 10.916 11.8477C10.7441 12.1055 10.5977 12.3809 10.4766 12.6738C10.3555 12.9668 10.2637 13.2734 10.2012 13.5938C10.1309 13.9062 10.0957 14.2344 10.0957 14.5781C10.0957 14.9141 10.1309 15.2383 10.2012 15.5508C10.2637 15.8711 10.3555 16.1777 10.4766 16.4707C10.5977 16.7637 10.7441 17.043 10.916 17.3086C11.0879 17.5664 11.2793 17.8047 11.4902 18.0234C11.709 18.25 11.9434 18.4492 12.1934 18.6211C12.4512 18.8008 12.7227 18.9512 13.0078 19.0723C13.293 19.1934 13.5879 19.2891 13.8926 19.3594C14.2051 19.4219 14.5254 19.4531 14.8535 19.4531C15.1816 19.4531 15.502 19.4219 15.8145 19.3594C16.127 19.2891 16.4258 19.1934 16.7109 19.0723C16.9961 18.9512 17.2637 18.8008 17.5137 18.6211C17.7715 18.4414 18.0059 18.2422 18.2168 18.0234C18.4355 17.8047 18.6309 17.5664 18.8027 17.3086C18.9746 17.043 19.1211 16.7637 19.2422 16.4707C19.3633 16.1777 19.4551 15.8711 19.5176 15.5508C19.5801 15.2383 19.6113 14.9141 19.6113 14.5781C19.6113 14.2344 19.5801 13.9062 19.5176 13.5938C19.4551 13.2734 19.3633 12.9668 19.2422 12.6738C19.1211 12.3809 18.9746 12.1055 18.8027 11.8477C18.6309 11.582 18.4355 11.3398 18.2168 11.1211ZM9.04102 17.9531C8.94727 17.9922 8.85547 17.998 8.76562 17.9707C8.67578 17.9434 8.60742 17.8867 8.56055 17.8008C8.52148 17.7148 8.52148 17.625 8.56055 17.5312C8.59961 17.4375 8.66602 17.3711 8.75977 17.332L20.9473 11.4844C21.041 11.4453 21.1348 11.4395 21.2285 11.4668C21.3223 11.4941 21.3887 11.5547 21.4277 11.6484C21.4668 11.7344 21.4668 11.8223 21.4277 11.9121C21.3887 12.002 21.3262 12.0703 21.2402 12.1172L9.04102 17.9531ZM20.9473 17.9531C21.041 17.9922 21.1348 17.998 21.2285 17.9707C21.3223 17.9434 21.3887 17.8867 21.4277 17.8008C21.4668 17.7148 21.4688 17.625 21.4336 17.5312C21.3984 17.4375 21.334 17.3711 21.2402 17.332L9.04102 11.4844C8.94727 11.4453 8.85547 11.4395 8.76562 11.4668C8.67578 11.4941 8.60742 11.5547 8.56055 11.6484C8.52148 11.7344 8.52148 11.8223 8.56055 11.9121C8.59961 12.002 8.66602 12.0703 8.75977 12.1172L20.9473 17.9531Z" fill="#FF3200"/>
</svg>
