<svg width="87" height="31" viewBox="0 0 87 31" fill="none" xmlns="http://www.w3.org/2000/svg">
<mask id="path-1-inside-1_16_21618" fill="white">
<path d="M6 0H87V24H6V0Z"/>
</mask>
<path d="M87 0H86V24H87H88V0H87Z" fill="#E0E0E0" mask="url(#path-1-inside-1_16_21618)"/>
<g filter="url(#filter0_d_16_21618)">
<g clip-path="url(#clip0_16_21618)">
<path d="M6 15H30V21H6V15Z" fill="black"/>
<path d="M6 9H30V15H6V9Z" fill="white"/>
<path d="M6 3H30V9H6V3Z" fill="#CE1126"/>
<path d="M18.0249 12.0719L20.0799 13.9799L19.9329 10.5149C19.9119 9.98992 19.4559 10.1099 19.1229 10.2989C18.7899 10.5149 18.4029 10.5149 18.0009 10.3739C17.5959 10.5149 17.2119 10.5149 16.8789 10.2989C16.5489 10.1099 16.0899 9.98992 16.0689 10.5149L15.9219 13.9799L18.0249 12.0719Z" fill="white" stroke="#C09300" stroke-width="0.086125" stroke-linejoin="round"/>
<path d="M16.3059 10.395L16.1619 13.764L15.9219 13.98L16.0689 10.515C16.1397 10.4607 16.2201 10.42 16.3059 10.395ZM16.5939 10.635L16.4739 13.455L16.2339 13.701L16.3779 10.446C16.4259 10.494 16.5669 10.611 16.5939 10.635ZM16.8549 10.851L16.7619 13.203L16.5669 13.392L16.6869 10.71C16.7349 10.755 16.8309 10.824 16.8549 10.851ZM17.1399 10.971L17.0469 12.975L16.8579 13.128L16.9509 10.899C16.9989 10.92 17.0919 10.971 17.1399 10.971ZM17.4039 10.971L17.3349 12.642L17.1399 12.831L17.2149 10.992C17.2599 10.992 17.3829 10.992 17.4039 10.971Z" fill="#C09300"/>
<path d="M19.6961 10.395L19.8401 13.764L20.0801 13.98L19.9331 10.515C19.8622 10.4607 19.7818 10.42 19.6961 10.395ZM19.4081 10.635L19.5281 13.455L19.7681 13.701L19.6241 10.446C19.5761 10.494 19.4351 10.611 19.4081 10.635ZM19.1471 10.851L19.2401 13.203L19.4351 13.392L19.3151 10.71C19.2671 10.755 19.1711 10.824 19.1471 10.851ZM18.8621 10.971L18.9551 12.975L19.1441 13.128L19.0511 10.899C19.0031 10.92 18.9101 10.971 18.8621 10.971ZM18.5981 10.971L18.6671 12.642L18.8621 12.831L18.7871 10.992C18.7421 10.992 18.6191 10.992 18.5981 10.971Z" fill="#C09300"/>
<path d="M18.0972 12.45L18.3852 13.764L18.2892 13.86L18.1902 13.785L18.0282 12.615L18.0972 13.785L18.0012 13.905L17.9082 13.785L17.9772 12.615L17.8122 13.785L17.7132 13.86L17.6172 13.764L17.9052 12.453H18.0972V12.45Z" fill="#C09300" stroke="#C09300" stroke-width="0.072875"/>
<path d="M17.3562 11.874L16.7832 13.905L17.5722 14.025L17.9052 12.498L17.3562 11.874Z" fill="white" stroke="#C09300" stroke-width="0.0795" stroke-linejoin="round"/>
<path d="M17.168 12.57L17.237 12.735L17.609 12.381" stroke="#C09300" stroke-width="0.086125" stroke-linejoin="round"/>
<path d="M17.4252 12.15L17.5032 12.879L17.7402 12.567M17.6442 12.687L17.7732 13.137M17.8242 12.972L17.5632 13.368M17.6442 13.764L17.5602 13.368L17.4882 12.966L17.3112 13.203L17.2362 12.93L16.9902 13.182L17.1132 13.638L17.2872 13.356L17.3802 13.644L17.5602 13.368" stroke="#C09300" stroke-width="0.086125" stroke-linejoin="round"/>
<path d="M16.9512 13.86L17.1102 13.635L17.2122 13.98L17.3562 13.74L17.4492 14.028" stroke="#C09300" stroke-width="0.086125" stroke-linejoin="round"/>
<path d="M18.6457 11.874L19.2188 13.905L18.4297 14.025L18.0968 12.498L18.6457 11.874Z" fill="white" stroke="#C09300" stroke-width="0.0795" stroke-linejoin="round"/>
<path d="M18.834 12.57L18.765 12.735L18.393 12.381" stroke="#C09300" stroke-width="0.086125" stroke-linejoin="round"/>
<path d="M18.5767 12.15L18.4987 12.879L18.2617 12.567M18.3577 12.687L18.2287 13.137M18.1777 12.972L18.4387 13.368M18.3577 13.764L18.4417 13.368L18.5137 12.966L18.6907 13.203L18.7657 12.93L19.0117 13.182L18.8887 13.638L18.7147 13.356L18.6217 13.644L18.4417 13.368" stroke="#C09300" stroke-width="0.086125" stroke-linejoin="round"/>
<path d="M19.0508 13.86L18.8918 13.635L18.7898 13.98L18.6458 13.74L18.5528 14.028" stroke="#C09300" stroke-width="0.086125" stroke-linejoin="round"/>
<path d="M18.0005 14.8139C18.6005 14.8139 19.1705 14.7659 19.5065 14.6729C19.6475 14.6459 19.6475 14.5739 19.6475 14.4779C19.7915 14.4299 19.7195 14.2619 19.8185 14.2619C19.7165 14.2919 19.6985 14.0969 19.5785 14.1209C19.5785 13.9529 19.4075 13.9319 19.2665 13.9799C18.9815 14.0729 18.4775 14.0969 18.0005 14.0969C17.5205 14.0729 17.0225 14.0729 16.7345 13.9769C16.5935 13.9319 16.4255 13.9529 16.4255 14.1209C16.3055 14.0969 16.2845 14.2889 16.1855 14.2619C16.2845 14.2619 16.2095 14.4329 16.3535 14.4779C16.3535 14.5739 16.3535 14.6459 16.4975 14.6729C16.8275 14.7659 17.4035 14.8139 18.0005 14.8139Z" fill="white" stroke="#C09300" stroke-width="0.159" stroke-linecap="round" stroke-linejoin="round"/>
<path d="M17.1883 13.9049C17.3803 13.9319 17.5963 13.9529 17.7643 13.9319C17.8603 13.9319 17.9293 14.0969 17.7373 14.1209C17.5723 14.1419 17.3083 14.1209 17.1673 14.0969C16.9817 14.0644 16.7976 14.0244 16.6153 13.9769C16.4473 13.9049 16.5673 13.7669 16.6633 13.7849C16.8345 13.8398 17.0102 13.8799 17.1883 13.9049ZM18.8143 13.9049C18.6223 13.9319 18.4063 13.9529 18.2443 13.9319C18.1423 13.9319 18.0733 14.0969 18.2653 14.1209C18.4333 14.1419 18.6943 14.1209 18.8353 14.0969C18.9553 14.0729 19.2193 14.0279 19.3873 13.9769C19.5553 13.9049 19.4353 13.7669 19.3393 13.7849C19.168 13.8398 18.9924 13.88 18.8143 13.9049Z" fill="white" stroke="#C09300" stroke-width="0.086125" stroke-linecap="round" stroke-linejoin="round"/>
<path d="M16.5911 13.812C16.4471 13.785 16.3811 13.953 16.4261 14.049C16.4471 14.001 16.5461 14.001 16.5671 13.953C16.5941 13.881 16.5461 13.881 16.5941 13.812H16.5911ZM17.1671 14.253C17.1671 14.157 17.2601 14.169 17.2601 14.073C17.2601 14.028 17.2361 13.953 17.1881 13.953C17.1631 13.9544 17.1395 13.965 17.1218 13.9827C17.1041 14.0004 17.0935 14.024 17.0921 14.049C17.0711 14.142 17.1671 14.157 17.1671 14.253ZM17.8481 13.98C17.9891 13.98 17.9741 14.169 17.9081 14.265C17.9081 14.196 17.7881 14.169 17.7881 14.121C17.7881 14.049 17.8961 14.049 17.8481 13.98ZM19.4081 13.812C19.5551 13.785 19.6241 13.953 19.5761 14.049C19.5551 14.001 19.4561 14.001 19.4351 13.953C19.4081 13.881 19.4561 13.881 19.4081 13.812ZM18.8411 14.25C18.8411 14.154 18.7451 14.166 18.7451 14.07C18.7451 14.025 18.7691 13.95 18.8171 13.95C18.8421 13.9514 18.8657 13.962 18.8834 13.9797C18.9011 13.9974 18.9116 14.021 18.9131 14.046C18.9341 14.139 18.8381 14.154 18.8381 14.25H18.8411ZM18.1511 13.98C18.0101 13.98 18.0251 14.169 18.0911 14.265C18.0911 14.196 18.2111 14.169 18.2111 14.121C18.2111 14.049 18.1031 14.049 18.1511 13.98Z" fill="white" stroke="#C09300" stroke-width="0.086125" stroke-linecap="round" stroke-linejoin="round"/>
<path d="M16.6406 13.8599C16.6886 13.8599 16.7606 13.8809 16.7816 13.9079L16.6406 13.8599ZM16.8776 13.9319C16.9016 13.9319 16.9976 13.9529 17.0426 13.9799L16.8776 13.9319ZM17.7356 14.0279C17.6906 14.0279 17.5946 14.0279 17.5706 14.0489L17.7356 14.0249V14.0279ZM17.4746 14.0279C17.4476 14.0009 17.3546 14.0009 17.3066 14.0279H17.4746ZM19.3586 13.8599C19.3077 13.8605 19.2583 13.8773 19.2176 13.9079L19.3586 13.8599ZM19.1246 13.9319C19.0946 13.9319 19.0046 13.9529 18.9566 13.9799L19.1246 13.9319ZM18.2636 14.0279C18.3086 14.0279 18.4046 14.0279 18.4316 14.0489L18.2636 14.0249V14.0279ZM18.5246 14.0279C18.5516 14.0009 18.6446 14.0009 18.6926 14.0279H18.5246Z" fill="white" stroke="#C09300" stroke-width="0.059625" stroke-linecap="round" stroke-linejoin="round"/>
<path d="M16.6 14.2378C16.585 14.2348 16.576 14.2198 16.582 14.2078C16.585 14.1868 16.6 14.1778 16.612 14.1838C16.624 14.1838 16.639 14.2018 16.639 14.2078L16.627 14.2288L16.621 14.2318C16.621 14.2378 16.609 14.2378 16.6 14.2378ZM18.25 14.3548C18.244 14.3548 18.232 14.3398 18.232 14.3338C18.232 14.3218 18.25 14.3038 18.262 14.3038L18.286 14.3158C18.295 14.3248 18.295 14.3428 18.283 14.3518C18.277 14.3578 18.259 14.3578 18.25 14.3518V14.3548ZM18.259 14.4298C18.247 14.4238 18.244 14.4178 18.241 14.4058C18.241 14.3908 18.241 14.3878 18.256 14.3788L18.268 14.3728L18.28 14.3788C18.292 14.3848 18.301 14.3908 18.301 14.4028C18.301 14.4118 18.292 14.4208 18.28 14.4268C18.271 14.4328 18.268 14.4328 18.259 14.4268V14.4298Z" fill="#C09300"/>
<path d="M16.7351 14.0999C16.7231 14.0999 16.7081 14.1119 16.6991 14.1179C16.6811 14.1209 16.6571 14.1329 16.6391 14.1179C16.6211 14.1149 16.5971 14.1179 16.5941 14.1419C16.5971 14.1629 16.6241 14.1719 16.6421 14.1599C16.6541 14.1449 16.6871 14.1329 16.6931 14.1599C16.6781 14.1839 16.6811 14.2109 16.6691 14.2319C16.6691 14.2469 16.6601 14.2589 16.6541 14.2709C16.6391 14.2709 16.6241 14.2709 16.6121 14.2799C16.6028 14.2799 16.5936 14.282 16.5853 14.2862C16.5769 14.2904 16.5697 14.2964 16.5641 14.3039C16.5521 14.3219 16.5401 14.3399 16.5371 14.3639C16.5401 14.3819 16.5671 14.3879 16.5851 14.3909L16.6451 14.4089L16.7411 14.4359C16.7891 14.4509 16.8371 14.4569 16.8851 14.4689L16.9001 14.4719C16.9211 14.4779 16.9301 14.4569 16.9301 14.4419L16.9601 14.3339C16.9661 14.3189 16.9751 14.2889 16.9481 14.2949C16.9331 14.3039 16.9181 14.3189 16.9001 14.3189C16.8731 14.3189 16.8881 14.3489 16.9001 14.3579C16.9001 14.3759 16.8941 14.3969 16.8851 14.4119C16.8671 14.4209 16.8491 14.4119 16.8311 14.4059C16.8161 14.4059 16.7801 14.3969 16.7951 14.3759L16.8101 14.3219C16.8191 14.3039 16.8191 14.2829 16.8251 14.2619C16.8131 14.2409 16.7951 14.2709 16.7801 14.2739C16.7681 14.2799 16.7321 14.2829 16.7501 14.3039C16.7681 14.3159 16.7561 14.3369 16.7501 14.3549C16.7501 14.3759 16.7261 14.3849 16.7081 14.3759C16.6901 14.3759 16.6631 14.3609 16.6781 14.3429L16.6931 14.2889L16.7141 14.2289C16.7141 14.2079 16.7231 14.1929 16.7321 14.1749C16.7321 14.1539 16.7471 14.1359 16.7471 14.1149C16.7471 14.1059 16.7411 14.1029 16.7351 14.1029V14.0999ZM16.6241 14.3189C16.6255 14.3181 16.627 14.3176 16.6286 14.3176C16.6302 14.3176 16.6317 14.3181 16.6331 14.3189C16.6391 14.3249 16.6391 14.3309 16.6331 14.3369L16.6241 14.3429C16.6091 14.3429 16.6061 14.3399 16.6061 14.3339C16.6061 14.3309 16.6061 14.3279 16.6151 14.3249C16.6188 14.3222 16.6228 14.3202 16.6271 14.3189H16.6241ZM16.5941 14.4689C16.5791 14.4569 16.5821 14.4479 16.6031 14.4299C16.6151 14.4239 16.6181 14.4239 16.6301 14.4329C16.6481 14.4479 16.6481 14.4569 16.6301 14.4719C16.6241 14.4779 16.6211 14.4779 16.6151 14.4779C16.6061 14.4779 16.6031 14.4779 16.5941 14.4719V14.4689ZM16.6841 14.4989C16.6774 14.4968 16.6718 14.4922 16.6684 14.486C16.6651 14.4798 16.6642 14.4726 16.6661 14.4659C16.6721 14.4539 16.6751 14.4509 16.6931 14.4509C16.7141 14.4509 16.7171 14.4539 16.7201 14.4719C16.7201 14.4839 16.7201 14.4869 16.7111 14.4929C16.7078 14.4955 16.7039 14.4974 16.6998 14.4984C16.6956 14.4995 16.6913 14.4996 16.6871 14.4989H16.6841ZM19.3601 14.4989C19.3541 14.4959 19.3511 14.4929 19.3511 14.4839C19.3511 14.4719 19.3571 14.4629 19.3751 14.4569C19.3931 14.4479 19.4051 14.4479 19.4111 14.4629C19.4201 14.4809 19.4201 14.4869 19.4081 14.4989C19.4021 14.5079 19.3991 14.5079 19.3841 14.5079C19.3691 14.5079 19.3661 14.5079 19.3601 14.5019V14.4989ZM16.8101 14.5349C16.7981 14.5349 16.7921 14.5229 16.7921 14.5109C16.7921 14.5019 16.7921 14.4989 16.7981 14.4929L16.8161 14.4869L16.8341 14.4899C16.8491 14.5019 16.8521 14.5139 16.8431 14.5259C16.8341 14.5379 16.8251 14.5379 16.8071 14.5349H16.8101ZM17.4641 14.5649L17.4581 14.5559C17.4581 14.5379 17.4581 14.5229 17.4641 14.5049C17.4671 14.4899 17.4641 14.4749 17.4701 14.4599L17.4821 14.3759C17.4821 14.3609 17.4821 14.3459 17.4881 14.3339C17.4911 14.3099 17.4881 14.2889 17.4941 14.2679C17.4941 14.2589 17.5031 14.2379 17.5121 14.2499C17.5241 14.2679 17.5391 14.2799 17.5541 14.2949C17.5661 14.3039 17.5541 14.3159 17.5451 14.3189C17.5331 14.3219 17.5301 14.3369 17.5301 14.3489L17.5241 14.3849C17.5241 14.4059 17.5241 14.4239 17.5181 14.4449L17.5151 14.4989L17.5091 14.5349C17.5091 14.5469 17.5091 14.5619 17.4971 14.5679C17.4881 14.5739 17.4731 14.5739 17.4671 14.5649H17.4641ZM18.3551 14.2709L18.3161 14.3069C18.2981 14.3219 18.3311 14.3279 18.3341 14.3399C18.3401 14.3579 18.3401 14.3759 18.3401 14.3939C18.3461 14.4119 18.3491 14.4269 18.3461 14.4449C18.3461 14.4659 18.3221 14.4599 18.3101 14.4719C18.2951 14.4779 18.2891 14.4929 18.2801 14.5019C18.273 14.5169 18.2689 14.5332 18.2681 14.5499C18.2681 14.5649 18.2591 14.5799 18.2681 14.5919L18.2711 14.5979H18.2861L18.3311 14.5949C18.3671 14.5889 18.4061 14.5889 18.4421 14.5859L18.5081 14.5799C18.5261 14.5829 18.5351 14.5649 18.5351 14.5499C18.5231 14.5289 18.5321 14.5079 18.5231 14.4899C18.5171 14.4659 18.5201 14.4449 18.5171 14.4239C18.5171 14.4059 18.4961 14.3999 18.4871 14.4119C18.4751 14.4239 18.4571 14.4269 18.4511 14.4389C18.4421 14.4569 18.4691 14.4569 18.4751 14.4689L18.4781 14.5139C18.4811 14.5319 18.4631 14.5319 18.4481 14.5349C18.4331 14.5409 18.4121 14.5439 18.4031 14.5259C18.3971 14.5109 18.3971 14.4959 18.3971 14.4809C18.3971 14.4509 18.3881 14.4269 18.3881 14.3999C18.3881 14.3699 18.3791 14.3369 18.3791 14.3039C18.3791 14.2889 18.3761 14.2679 18.3551 14.2709ZM18.3371 14.5169H18.3461V14.5409L18.3371 14.5439C18.3332 14.5451 18.3292 14.5461 18.3251 14.5469C18.3231 14.5469 18.3211 14.5469 18.3191 14.5469C18.3131 14.5409 18.3131 14.5319 18.3221 14.5229L18.3371 14.5169ZM17.4371 14.2409C17.4281 14.2409 17.4131 14.2619 17.4011 14.2589C17.3741 14.2619 17.3771 14.2889 17.3981 14.2979V14.3219C17.4011 14.3459 17.3861 14.3669 17.3891 14.3909C17.3891 14.4149 17.3801 14.4419 17.3801 14.4689C17.3711 14.4959 17.3711 14.5229 17.3681 14.5499C17.3651 14.5739 17.3471 14.5649 17.3321 14.5589V14.5289C17.3351 14.5019 17.3171 14.4959 17.2961 14.4929C17.2751 14.4929 17.2661 14.4779 17.2721 14.4599C17.2811 14.4479 17.3021 14.4509 17.3171 14.4509C17.3471 14.4569 17.3441 14.4179 17.3291 14.4029C17.3171 14.3849 17.2931 14.3729 17.2871 14.3549C17.2871 14.3309 17.2721 14.3039 17.2511 14.2919C17.2181 14.2889 17.1911 14.3159 17.1821 14.3459C17.1671 14.3459 17.1521 14.3519 17.1401 14.3579C17.1191 14.3639 17.0891 14.3999 17.1191 14.4149C17.1341 14.4179 17.1851 14.4299 17.1611 14.4509C17.1491 14.4749 17.1251 14.4749 17.1041 14.4689C17.0831 14.4689 17.0591 14.4569 17.0591 14.4329C17.0561 14.4089 17.0561 14.3849 17.0471 14.3639C17.0411 14.3399 17.0141 14.3459 17.0111 14.3699C16.9901 14.3849 16.9931 14.4119 17.0081 14.4299C17.0171 14.4509 17.0081 14.4779 16.9991 14.4959C16.9931 14.5259 16.9631 14.5259 16.9421 14.5319C16.9331 14.5379 16.8941 14.5319 16.9091 14.5529C16.9316 14.5632 16.9568 14.5664 16.9811 14.5619C17.0051 14.5619 17.0261 14.5409 17.0411 14.5199C17.0561 14.5049 17.0831 14.5139 17.1071 14.5139C17.1281 14.5139 17.1521 14.5289 17.1761 14.5169C17.1821 14.5019 17.2121 14.4719 17.2211 14.5019C17.2211 14.5289 17.2421 14.5409 17.2661 14.5379C17.2931 14.5379 17.2811 14.5559 17.2811 14.5739C17.2811 14.6009 17.3021 14.6159 17.3261 14.6279H17.3501C17.3711 14.6189 17.3951 14.6099 17.4041 14.5859C17.4131 14.5649 17.4131 14.5409 17.4191 14.5199C17.4251 14.4869 17.4311 14.4509 17.4311 14.4179C17.4401 14.3879 17.4371 14.3549 17.4431 14.3219L17.4521 14.2529C17.4521 14.2379 17.4461 14.2379 17.4371 14.2409ZM17.2361 14.3639C17.2391 14.3639 17.2421 14.3699 17.2421 14.3789C17.2421 14.3909 17.2481 14.3999 17.2571 14.4029V14.4119L17.2331 14.4179C17.2181 14.4179 17.2061 14.4119 17.1971 14.4029L17.1911 14.3969L17.2001 14.3909L17.2151 14.3759C17.2241 14.3669 17.2301 14.3639 17.2361 14.3639ZM19.2161 14.1269C19.1988 14.1281 19.1818 14.1311 19.1651 14.1359C19.1351 14.1359 19.1201 14.1659 19.1501 14.1839C19.1681 14.2289 19.1951 14.1719 19.2251 14.1779C19.2671 14.1839 19.2701 14.2319 19.2791 14.2679C19.2791 14.3009 19.2911 14.3339 19.3001 14.3669C19.3301 14.3999 19.2791 14.4209 19.2581 14.3969C19.2401 14.3759 19.1981 14.3519 19.1771 14.3789C19.1501 14.3909 19.1471 14.4269 19.1261 14.4389C19.0901 14.4479 19.0871 14.4029 19.0661 14.3849C19.0481 14.3579 19.0151 14.3549 18.9881 14.3489C18.9761 14.3219 18.9821 14.2769 18.9581 14.2589C18.9341 14.2679 18.8921 14.3099 18.9281 14.3309C18.9581 14.3609 18.9131 14.3729 18.8981 14.3909C18.8741 14.4179 18.8681 14.4509 18.8681 14.4809C18.8291 14.5019 18.8231 14.4569 18.8171 14.4299C18.8171 14.3969 18.7871 14.4059 18.7661 14.4179C18.7361 14.4299 18.7241 14.4569 18.7061 14.4779V14.5379C18.7121 14.5649 18.7421 14.5529 18.7601 14.5499C18.7901 14.5379 18.8021 14.5709 18.7781 14.5889C18.7601 14.6069 18.7121 14.5979 18.7181 14.6309H18.7661C18.7961 14.6219 18.8321 14.5979 18.8351 14.5619C18.8411 14.5319 18.8861 14.5349 18.9101 14.5289C18.9401 14.5199 18.9791 14.5169 18.9881 14.5589C19.0091 14.5799 19.0541 14.6039 19.0781 14.5739C19.0895 14.5666 19.0987 14.5563 19.1045 14.5441C19.1104 14.5319 19.1126 14.5183 19.1111 14.5049C19.1081 14.4809 19.1501 14.4809 19.1621 14.4959C19.1771 14.5199 19.2251 14.5139 19.2491 14.4959C19.2731 14.4809 19.2791 14.4479 19.3151 14.4479L19.4771 14.4029C19.5191 14.3939 19.4711 14.3669 19.4591 14.3489C19.4291 14.3339 19.3991 14.3999 19.3631 14.3669C19.3331 14.3459 19.3361 14.3069 19.3271 14.2739C19.3181 14.2319 19.3211 14.1839 19.2911 14.1539C19.2731 14.1329 19.2431 14.1269 19.2161 14.1269ZM19.0121 14.4119C19.0151 14.4119 19.0211 14.4119 19.0271 14.4179C19.0391 14.4239 19.0481 14.4359 19.0481 14.4479C19.0481 14.4539 19.0481 14.4539 19.0391 14.4569L19.0241 14.4629C19.0181 14.4629 19.0031 14.4539 19.0031 14.4479V14.4359C18.9971 14.4239 18.9971 14.4239 19.0031 14.4179L19.0121 14.4119ZM19.2071 14.4239C19.2191 14.4239 19.2251 14.4239 19.2311 14.4329C19.2341 14.4449 19.2311 14.4509 19.2191 14.4569L19.2041 14.4629L19.1921 14.4539C19.1861 14.4509 19.1831 14.4479 19.1831 14.4419C19.1831 14.4329 19.1951 14.4239 19.2071 14.4209V14.4239ZM18.9371 14.4239C18.9431 14.4239 18.9461 14.4239 18.9491 14.4299C18.9551 14.4359 18.9581 14.4389 18.9581 14.4479V14.4659C18.9581 14.4749 18.9581 14.4719 18.9401 14.4719C18.9221 14.4719 18.9191 14.4719 18.9191 14.4539C18.9191 14.4419 18.9191 14.4389 18.9281 14.4329C18.9311 14.4269 18.9371 14.4269 18.9401 14.4269L18.9371 14.4239ZM18.7751 14.4689C18.7779 14.4697 18.7805 14.4713 18.7826 14.4734C18.7847 14.4754 18.7863 14.478 18.7871 14.4809C18.7871 14.4899 18.7871 14.4959 18.7811 14.4989C18.7721 14.5019 18.7571 14.5049 18.7511 14.4989C18.751 14.4979 18.751 14.4969 18.7511 14.4959C18.7451 14.4929 18.7451 14.4899 18.7511 14.4869V14.4839L18.7571 14.4749C18.759 14.4719 18.7618 14.4697 18.765 14.4686C18.7683 14.4676 18.7719 14.4676 18.7751 14.4689ZM19.0511 14.5049L19.0661 14.5079V14.5259H19.0301L19.0271 14.5199C19.0271 14.5139 19.0271 14.5109 19.0331 14.5079L19.0511 14.5049ZM18.5381 14.6489C18.5351 14.6489 18.5291 14.6459 18.5351 14.6429C18.5381 14.6339 18.5501 14.6309 18.5591 14.6249C18.5754 14.6186 18.5899 14.6083 18.6011 14.5949C18.6011 14.5829 18.6131 14.5769 18.6131 14.5649L18.6101 14.5229C18.6061 14.5102 18.5975 14.4996 18.5861 14.4929C18.5771 14.4899 18.5651 14.4869 18.5621 14.4749C18.5621 14.4659 18.5711 14.4569 18.5741 14.4479L18.5921 14.4119C18.6011 14.4029 18.6131 14.4119 18.6161 14.4179L18.6311 14.4479C18.6401 14.4569 18.6461 14.4659 18.6491 14.4779C18.6551 14.4899 18.6611 14.4989 18.6611 14.5079L18.6671 14.5469C18.6671 14.5619 18.6671 14.5799 18.6611 14.5949L18.6431 14.6189C18.6341 14.6279 18.6251 14.6369 18.6131 14.6399C18.6041 14.6429 18.5981 14.6519 18.5861 14.6519H18.5411L18.5381 14.6489ZM18.3311 14.6609C18.3251 14.6549 18.3221 14.6519 18.3221 14.6429C18.3221 14.6339 18.3221 14.6339 18.3311 14.6249C18.3431 14.6129 18.3491 14.6129 18.3731 14.6249C18.3941 14.6369 18.4031 14.6369 18.4031 14.6279C18.4061 14.6219 18.4181 14.6129 18.4331 14.6129C18.4387 14.6131 18.444 14.6152 18.4481 14.6189C18.4541 14.6249 18.4571 14.6279 18.4571 14.6399C18.4571 14.6549 18.4571 14.6549 18.4481 14.6639C18.4391 14.6699 18.4391 14.6699 18.4271 14.6699C18.4218 14.6696 18.4167 14.6677 18.4124 14.6645C18.4081 14.6613 18.4049 14.6569 18.4031 14.6519C18.4031 14.6459 18.4031 14.6429 18.3971 14.6489L18.3911 14.6519C18.3851 14.6519 18.3731 14.6609 18.3671 14.6669L18.3521 14.6699C18.3401 14.6699 18.3401 14.6699 18.3311 14.6609ZM17.7371 14.3939C17.7161 14.3939 17.6951 14.4119 17.6921 14.4329C17.6981 14.4539 17.7161 14.4779 17.7041 14.4989C17.7131 14.5289 17.6801 14.5409 17.6591 14.5259C17.6471 14.4959 17.6411 14.4659 17.6201 14.4359C17.5961 14.4299 17.5871 14.4689 17.5691 14.4839C17.5781 14.5049 17.6021 14.5259 17.6051 14.5529C17.6111 14.5829 17.5931 14.6129 17.5721 14.6249C17.5511 14.6459 17.5211 14.6399 17.4971 14.6429C17.4671 14.6609 17.5181 14.6669 17.5331 14.6669C17.5631 14.6699 17.5961 14.6669 17.6231 14.6429C17.6441 14.6339 17.6411 14.5919 17.6681 14.5889L17.8121 14.5979C17.8361 14.6039 17.8751 14.5949 17.8931 14.6129C17.8931 14.6429 17.9231 14.6669 17.9501 14.6789C17.9651 14.6849 17.9801 14.6639 17.9951 14.6609C18.0251 14.6519 18.0161 14.6159 18.0341 14.6009H18.1841C18.1901 14.6009 18.1931 14.5859 18.2021 14.5799L18.1961 14.5229C18.1871 14.4989 18.1961 14.4689 18.1811 14.4479C18.1541 14.4419 18.1331 14.4629 18.1091 14.4659C18.0791 14.4779 18.0581 14.5049 18.0551 14.5349C18.0401 14.5619 18.0131 14.5289 18.0251 14.5049L18.0221 14.4749C18.0071 14.4599 17.9801 14.4659 17.9591 14.4629L17.8691 14.4569C17.8391 14.4569 17.8121 14.4599 17.7881 14.4539C17.7581 14.4539 17.7581 14.4239 17.7581 14.3999C17.7521 14.3953 17.7446 14.3931 17.7371 14.3939ZM17.7971 14.5049L17.8271 14.5079H17.8661C17.8961 14.5139 17.9261 14.5139 17.9561 14.5139C17.9621 14.5139 17.9681 14.5199 17.9741 14.5259V14.5859C17.9741 14.5949 17.9741 14.6069 17.9681 14.6099C17.9665 14.6122 17.9645 14.6143 17.9621 14.6159C17.9577 14.6151 17.9535 14.6133 17.9499 14.6107C17.9463 14.6081 17.9433 14.6048 17.9411 14.6009V14.5589C17.9352 14.5538 17.9279 14.5507 17.9201 14.5499L17.8421 14.5469L17.7821 14.5439C17.7731 14.5409 17.7611 14.5439 17.7551 14.5319C17.7491 14.5259 17.7581 14.5139 17.7671 14.5109C17.7765 14.5066 17.7868 14.5046 17.7971 14.5049ZM18.1361 14.5139C18.1391 14.5139 18.1421 14.5139 18.1421 14.5229L18.1481 14.5379C18.1481 14.5409 18.1481 14.5439 18.1421 14.5439C18.1271 14.5499 18.1121 14.5499 18.1061 14.5439C18.1061 14.5409 18.1061 14.5289 18.1121 14.5259L18.1361 14.5139Z" fill="#C09300"/>
<path d="M18.0014 12.8159C18.9794 12.0659 18.8954 10.9619 18.8954 10.9619L18.8204 10.9679C18.6134 10.9679 18.1244 10.8479 18.0104 10.7009C17.8904 10.8359 17.3864 10.9709 17.1824 10.9709L17.1074 10.9619C17.1074 10.9619 17.0204 12.0629 18.0014 12.8159Z" fill="white" stroke="#C09300" stroke-width="0.072875"/>
<path d="M18.8175 11.04H18.7935C18.6075 11.04 18.1755 10.947 18.0075 10.803C17.8335 10.935 17.3925 11.043 17.2095 11.043C17.2015 11.0427 17.1934 11.0417 17.1855 11.04C17.1872 11.2296 17.2134 11.4181 17.2635 11.601C17.3839 12.0415 17.6426 12.4317 18.0015 12.714C18.3607 12.4306 18.6194 12.0394 18.7395 11.598C18.7894 11.4161 18.8156 11.2286 18.8175 11.04Z" fill="white" stroke="#C09300" stroke-width="0.059625"/>
<path d="M17.6835 10.95C17.5224 11.0025 17.3549 11.0328 17.1855 11.04L17.1885 11.163C17.1988 11.3102 17.2239 11.4559 17.2635 11.598C17.3442 11.8931 17.4874 12.1673 17.6835 12.402V10.95ZM18.3015 10.95V12.426C18.5071 12.1859 18.6567 11.9031 18.7395 11.598C18.7791 11.4559 18.8043 11.3102 18.8145 11.163L18.8175 11.043H18.7935C18.6795 11.043 18.4815 11.007 18.3015 10.947V10.95Z" fill="#C09300"/>
<path d="M18.3703 10.59C18.3913 10.593 18.3433 10.485 18.3433 10.485C18.3973 10.539 18.5953 10.554 18.5953 10.554C18.4753 10.5 18.3553 10.101 18.3703 9.77996C18.3823 9.46196 18.3253 9.33596 18.2803 9.28796C18.2203 9.22796 18.0253 9.17396 17.8993 9.16796C17.8243 9.16496 17.8393 9.22196 17.8393 9.22196C17.7043 9.18896 17.5693 9.17396 17.5093 9.21596C17.4553 9.25196 17.4433 9.44096 17.4853 9.40796C17.5843 9.32696 17.6713 9.40196 17.7313 9.48896C17.7853 9.56396 17.7823 9.77996 17.7043 10.035C17.6352 10.2277 17.5338 10.4073 17.4043 10.566C17.5243 10.566 17.6923 10.461 17.6923 10.461L17.6533 10.626C17.7793 10.566 17.8783 10.473 17.8783 10.473L17.9983 10.599C18.0373 10.545 18.1183 10.473 18.1183 10.473C18.1183 10.473 18.2173 10.578 18.3703 10.593V10.59Z" fill="white" stroke="#C09300" stroke-width="0.0795"/>
<path d="M17.8834 9.82799C17.8834 9.82799 17.8174 10.32 17.6914 10.458M17.9914 9.81299C17.9914 9.81299 17.9614 10.314 17.8774 10.473M18.0844 9.83399C18.0844 9.83399 18.0844 10.38 18.1144 10.473M18.2044 9.86099C18.2044 9.86099 18.2284 10.32 18.3424 10.485" stroke="#C09300" stroke-width="0.086125"/>
<path d="M17.7604 9.58794C17.7577 9.55315 17.7475 9.51937 17.7304 9.48894C17.6704 9.39894 17.5834 9.32694 17.4844 9.40794C17.4844 9.40794 17.5174 9.30294 17.5924 9.29994C17.6464 9.29694 17.7754 9.34194 17.8894 9.53394C17.8894 9.53394 17.8054 9.51594 17.7844 9.53394C17.7484 9.56394 17.7634 9.58794 17.7634 9.58794H17.7604Z" fill="#C09300" stroke="#C09300" stroke-width="0.019875"/>
<path d="M17.4727 9.27896C17.4817 9.24896 17.4937 9.22496 17.5117 9.21596C17.5717 9.17396 17.7037 9.18596 17.8387 9.22196C17.8387 9.22196 17.8267 9.16496 17.8987 9.16796C18.0247 9.17396 18.2167 9.22796 18.2767 9.28796C18.2959 9.30906 18.3111 9.33345 18.3217 9.35996C18.2917 9.31796 18.2077 9.32096 18.1867 9.32396C18.1567 9.32696 18.1357 9.32396 18.0937 9.33596C18.0727 9.34196 18.0427 9.34796 18.0247 9.35996C18.0127 9.37196 18.0007 9.40796 17.9827 9.40796C17.9527 9.40796 17.9527 9.40196 17.9437 9.39296C17.9347 9.37796 17.9287 9.35996 17.9167 9.36296C17.8867 9.36596 17.8327 9.34196 17.7667 9.28796C17.6977 9.23396 17.6707 9.22196 17.5867 9.22796C17.4967 9.23396 17.4727 9.28496 17.4727 9.28496V9.27896Z" fill="#C09300" stroke="#C09300" stroke-width="0.019875"/>
<path d="M17.9655 9.35658C17.9852 9.35658 18.0012 9.34057 18.0012 9.32081C18.0012 9.30105 17.9852 9.28503 17.9655 9.28503C17.9457 9.28503 17.9297 9.30105 17.9297 9.32081C17.9297 9.34057 17.9457 9.35658 17.9655 9.35658Z" fill="white"/>
</g>
</g>
<path d="M47.875 11.2812H44.4375V7.8125H42.8125V11.2812H39.375V12.8438H42.8125V16.3125H44.4375V12.8438H47.875V11.2812ZM52.4688 16.3125L54.6562 14.4062C56.9375 12.4062 57.9688 11.0625 57.9688 9.40625C57.9688 7.375 56.4062 5.96875 54.0938 5.96875C51.6562 5.96875 49.9688 7.4375 49.7812 9.84375L51.5312 10.1875C51.625 8.46875 52.5625 7.5625 54 7.5625C55.2188 7.5625 56.0625 8.375 56.0625 9.5625C56.0625 10.625 55.4688 11.6562 53.875 13.0938L49.75 16.7812V18H58.25V16.3125H52.4688ZM64.4062 18.1562C67.3125 18.1562 69.1562 15.7812 69.1562 12.0625C69.1562 8.34375 67.3125 5.96875 64.4062 5.96875C61.5 5.96875 59.6562 8.34375 59.6562 12.0625C59.6562 15.7812 61.5 18.1562 64.4062 18.1562ZM64.4062 16.5312C62.6562 16.5312 61.5625 14.8125 61.5625 12.0625C61.5625 9.3125 62.6562 7.59375 64.4062 7.59375C66.1562 7.59375 67.25 9.3125 67.25 12.0625C67.25 14.8125 66.1562 16.5312 64.4062 16.5312Z" fill="#4F4F4F"/>
<defs>
<filter id="filter0_d_16_21618" x="0" y="-2" width="36" height="36" filterUnits="userSpaceOnUse" color-interpolation-filters="sRGB">
<feFlood flood-opacity="0" result="BackgroundImageFix"/>
<feColorMatrix in="SourceAlpha" type="matrix" values="0 0 0 0 0 0 0 0 0 0 0 0 0 0 0 0 0 0 127 0" result="hardAlpha"/>
<feOffset dy="4"/>
<feGaussianBlur stdDeviation="3"/>
<feComposite in2="hardAlpha" operator="out"/>
<feColorMatrix type="matrix" values="0 0 0 0 0 0 0 0 0 0 0 0 0 0 0 0 0 0 0.16 0"/>
<feBlend mode="normal" in2="BackgroundImageFix" result="effect1_dropShadow_16_21618"/>
<feBlend mode="normal" in="SourceGraphic" in2="effect1_dropShadow_16_21618" result="shape"/>
</filter>
<clipPath id="clip0_16_21618">
<rect width="24" height="18" fill="white" transform="translate(6 3)"/>
</clipPath>
</defs>
</svg>
