<svg width="123" height="107" viewBox="0 0 123 107" fill="none" xmlns="http://www.w3.org/2000/svg">
<g clip-path="url(#clip0_72_2735)">
<path d="M122.34 55.5421C121.35 53.4634 119.699 52.4058 117.352 52.5881C116.399 52.6611 115.409 52.6975 114.455 52.8799C110.165 53.7916 105.874 54.6669 101.62 55.6515C96.9624 56.7456 92.305 57.9855 87.6476 59.1525C87.6109 59.6266 87.5742 59.9184 87.6109 60.2101C87.8309 64.1488 85.9606 68.051 80.313 68.3427C75.8023 68.5615 71.3282 69.0721 66.7808 69.0721C62.1601 69.0721 57.5393 68.7074 52.9186 68.4886C52.4418 68.4521 52.0018 67.6498 51.525 67.2122C52.0751 66.9569 52.5885 66.6651 53.1386 66.4463C53.3953 66.3734 53.7254 66.4463 54.0554 66.5193C59.8497 67.2851 65.7173 67.5404 71.5483 67.2122C74.4454 67.0298 77.3792 66.7016 80.2397 66.191C82.8068 65.717 84.7504 65.097 85.3372 62.2524C86.144 58.4961 84.0536 54.8857 80.4964 53.4634C76.6458 51.9317 72.2451 52.6246 68.1744 52.4058C57.8327 51.7858 47.4177 49.2694 37.5527 53.6093C30.805 56.5632 26.3309 62.2524 20.8667 66.9204C25.5241 73.1202 30.0349 79.2469 34.6189 85.2643C35.4991 86.3949 39.2764 85.4467 40.4499 85.4102C45.5474 85.2279 50.6815 85.5561 55.779 86.0302C60.6565 86.4678 65.5706 87.3066 70.4481 86.8325C77.8193 86.0666 84.9704 83.7326 91.5715 80.4869C95.3121 78.6634 98.9061 76.5482 102.463 74.3601C105.874 72.2814 109.504 70.3485 112.585 67.8322C115.409 65.5346 118.453 63.5653 121.13 61.1219C122.78 59.6631 123.33 57.6573 122.34 55.5421ZM88.051 76.9494C88.0143 76.9494 88.0143 76.9494 88.051 76.9494Z" stroke="#F2F4F7" stroke-width="3" stroke-miterlimit="10"/>
<path d="M65.7173 42.3041C66.4508 38.0737 67.2576 33.7704 67.9177 29.467C68.0277 28.7377 67.6976 27.68 67.1842 27.133C64.2504 24.1061 61.2066 21.225 58.1994 18.271C57.796 17.8699 57.6493 17.2864 57.356 16.7758C57.8694 16.557 58.3828 16.1923 58.8962 16.0829C62.7468 15.4629 66.5975 14.8794 70.4848 14.3689C71.9883 14.1865 72.9785 13.7489 73.6753 12.2172C75.3255 8.5703 77.1958 5.03281 78.9928 1.45885C79.2495 0.984751 79.7629 0.65653 80.1663 0.255371C80.5331 0.65653 80.9731 0.984751 81.1932 1.42238C83.0635 5.10575 84.9338 8.78911 86.6941 12.5089C87.2808 13.7489 88.051 14.1501 89.3345 14.3324C93.3685 14.843 97.4391 15.4629 101.473 16.0829C101.95 16.1558 102.427 16.4841 102.903 16.7029C102.647 17.2134 102.5 17.8334 102.133 18.1981C99.2361 21.0792 96.339 23.9237 93.3318 26.7319C92.3783 27.6436 92.0849 28.5188 92.305 29.7952C93.0384 33.661 93.7352 37.5267 94.3586 41.4289C94.4687 42.0853 94.2486 42.7782 94.1386 43.4711C93.5152 43.3252 92.8184 43.2888 92.2683 43.0335C88.5644 41.1371 84.9338 39.1678 81.2298 37.3443C80.6064 37.0526 79.5796 37.0526 78.9928 37.3443C75.1789 39.2407 71.4016 41.2465 67.6243 43.2158C66.2307 43.8723 65.644 43.617 65.7173 42.3041Z" stroke="#F2F4F7" stroke-width="3" stroke-miterlimit="10"/>
<path d="M0.256836 73.0475C3.9241 70.3488 7.408 67.6865 11.0019 65.1702C13.1289 63.675 16.0261 64.1491 17.5663 66.1913C24.0574 74.7615 30.5118 83.4047 36.9295 92.0478C38.5431 94.236 38.213 97.117 36.1227 98.7581C32.6754 101.457 29.1182 104.01 25.4509 106.708C17.0529 95.5124 8.72821 84.3893 0.256836 73.0475Z" stroke="#F2F4F7" stroke-width="3" stroke-miterlimit="10"/>
</g>
<defs>
<clipPath id="clip0_72_2735">
<rect width="123" height="107" fill="white"/>
</clipPath>
</defs>
</svg>
