<svg width="90" height="95" viewBox="0 0 90 95" fill="none" xmlns="http://www.w3.org/2000/svg">
<g clip-path="url(#clip0_72_2740)">
<path d="M45.086 91.953C44.9421 91.2276 44.7693 90.4731 44.6541 89.7187C44.3662 87.7456 45.0284 86.1497 46.5256 84.8149C48.397 83.219 48.5121 80.5205 46.8422 78.6634C46.4968 78.2572 46.1225 77.88 45.7482 77.5028C43.0994 74.6301 42.8691 72.628 44.9133 69.3491C46.1801 67.289 45.6042 65.577 43.3586 64.7935C41.5447 64.1552 39.6733 63.6909 37.9459 62.9075C36.9094 62.4432 35.873 61.6307 35.2684 60.7022C33.8576 58.6421 32.7348 56.3788 31.468 54.2025C30.633 52.7807 29.9421 52.7807 29.0495 54.1445C28.8192 54.5217 28.5889 54.8989 28.3586 55.2471C27.2645 56.9011 25.5659 57.5684 23.896 56.9591C22.0534 56.2917 21.0169 54.7829 21.3336 52.7807C21.6215 50.9237 22.1398 49.1246 22.658 47.2966C24.1839 41.6964 23.1186 42.5089 28.8768 39.5202C29.539 39.172 30.5179 38.3305 30.4315 37.9823C30.2012 37.1118 29.5678 36.1253 28.8192 35.632C28.0419 35.1097 26.8902 35.1387 25.9689 34.8195C24.2703 34.2392 22.514 33.7169 20.9017 32.9334C19.2319 32.121 17.6772 31.0184 16.0937 30.0318C13.2146 28.2618 12.5524 27.4493 10.9977 23.6772C9.5006 26.3177 8.00347 28.639 6.79426 31.1054C-0.461018 46.4551 2.18774 65.0547 13.3586 77.7349C13.6465 78.0541 13.9344 78.3733 14.2223 78.7215C14.7693 79.4179 14.9133 80.1433 14.2223 80.7816C13.5313 81.42 12.7827 81.2459 12.1781 80.5785C11.3432 79.65 10.4795 78.7215 9.73092 77.7349C2.21653 67.9273 -1.06562 56.843 0.316333 44.511C1.87104 30.409 8.66566 19.4408 20.2396 11.4612C20.9593 10.968 21.3048 10.4747 21.4488 9.54615C22.1685 5.25171 24.4718 2.14694 28.5889 0.696119C32.6484 -0.754706 36.3624 0.115789 39.5006 3.07547C40.4219 3.94597 41.2568 4.1781 42.4085 4.09105C49.3758 3.56875 56.0553 4.81646 62.4469 7.54401C62.9363 7.74713 63.5121 8.09532 63.7712 8.55959C63.944 8.90779 63.8576 9.74926 63.5697 9.95238C63.1666 10.2716 62.4469 10.4166 61.9286 10.3006C58.2722 9.285 54.7021 7.97926 51.0169 7.25385C48.1954 6.70253 45.2588 6.8186 42.2645 6.61548C44.2799 14.9142 40.5946 20.9496 35.729 26.4918C33.8 28.697 30.6042 28.697 28.5601 26.5788C25.5083 23.445 23.2626 19.76 21.967 15.5235C21.8231 15.0593 21.6791 14.624 21.5064 14.0147C18.5121 15.9298 15.9785 18.2801 13.6465 20.8626C13.5025 21.0077 13.3874 21.3268 13.4449 21.5009C13.9344 23.5321 14.3662 25.6213 16.2952 26.84C18.7136 28.4069 21.1033 30.0318 23.6657 31.3085C25.1628 32.0629 26.9766 32.179 28.6465 32.5562C31.5831 33.2236 33.9152 36.2123 33.2242 38.7658C32.9651 39.7523 32.0726 40.5358 31.468 41.4063C31.4392 41.4353 31.3816 41.4643 31.3528 41.4933C27.0054 42.683 25.3355 45.9038 24.8461 50.0532C24.7309 50.9527 24.3279 51.8232 24.2127 52.7227C24.1551 53.187 24.5006 53.7092 24.6446 54.2025C25.1628 53.9704 25.7386 53.8253 26.1705 53.5061C26.4872 53.274 26.6311 52.7807 26.8614 52.4325C28.7041 49.6179 31.9286 49.6179 33.6561 52.4615C34.9517 54.6088 36.1321 56.814 37.4565 58.9322C37.8307 59.5125 38.4929 60.0639 39.1263 60.325C40.8538 61.0214 42.6676 61.5147 44.4238 62.153C48.1954 63.5168 49.491 67.289 47.3317 70.7129C45.9497 72.9182 45.9497 73.8177 47.8787 75.6167C50.038 77.6479 51.1609 79.9692 50.7002 82.9579C50.4699 84.5538 49.6925 85.8305 48.4257 86.8751C46.9862 88.0938 46.871 90.241 48.1666 91.6338C48.3394 91.8369 48.7424 91.953 49.0303 91.924C63.944 90.0089 75.1436 82.5516 82.3701 69.175C82.3989 69.146 82.3701 69.088 82.3701 68.8849C81.4776 68.1885 80.4987 67.405 79.5198 66.6506C78.5697 65.9252 77.6196 65.1998 76.7271 64.5034C75.3163 66.8537 73.992 69.146 72.5524 71.4093C71.919 72.4249 71.0841 73.3244 70.2492 74.1949C68.1474 76.4001 65.0092 76.4001 62.9651 74.1659C59.1071 69.9585 56.2856 65.2288 55.7386 59.1934C52.6004 60.1509 50.7866 57.8006 48.6561 56.2627C46.7271 54.8989 46.4392 52.6066 47.7923 50.6335C48.5409 49.5599 49.2607 48.4573 50.0956 47.4997C51.9094 45.4686 52.7156 43.0602 53.205 40.4777C54.1551 35.3998 57.8691 32.2951 62.9651 32.5562C65.2683 32.6723 66.7079 31.9469 67.5716 29.7997C68.6657 27.0141 70.5083 25.099 73.7041 24.8378C74.5966 24.7508 76.4968 22.2264 76.4392 21.3268C76.4104 20.9496 76.0649 20.5434 75.777 20.2823C73.1282 17.9899 70.4507 15.7557 67.7444 13.4924C67.514 13.3183 67.2549 13.1732 67.0246 13.0281C66.3048 12.5348 65.9305 11.8965 66.42 11.055C66.9382 10.1555 67.8019 10.1845 68.5505 10.6778C70.3643 11.9255 72.2357 13.1442 73.9056 14.595C82.658 22.1103 87.9267 31.6857 89.5102 43.1182C92.706 66.3024 78.3969 87.7456 55.9113 93.4618C41.7175 97.0599 28.7616 94.0132 17.1302 85.1921C16.871 84.989 16.468 84.7859 16.3816 84.5248C16.2088 83.9444 15.9497 83.0159 16.2088 82.7838C16.6119 82.4066 17.562 82.2325 18.0227 82.4646C18.9728 82.8998 19.7213 83.7123 20.585 84.3216C27.5812 89.2254 35.2971 91.8659 43.8192 92.069C44.1071 92.069 44.395 92.0691 44.6829 92.04C44.8845 92.0691 44.9708 92.011 45.086 91.953ZM78.5121 23.6772C77.4757 25.9405 76.0073 27.5654 73.5889 27.8556C72.1781 28.0297 71.3432 28.7551 70.7386 29.9447C70.4219 30.5831 70.0476 31.2215 69.7309 31.8598C68.4641 34.5584 66.3048 35.5739 63.4257 35.3998C59.3087 35.1677 56.6311 37.2569 55.9401 41.3192C55.4507 44.1338 54.5582 46.7163 52.658 48.8925C51.8231 49.8791 51.1033 50.9817 50.3259 51.9973C49.6637 52.8388 49.7213 53.5642 50.6138 54.2025C51.4776 54.8119 52.3125 55.4793 53.1762 56.0886C54.5294 57.0171 55.9401 56.5819 56.5447 55.015C58.6465 49.5599 63.9728 46.6873 69.3566 48.08C74.7981 49.5019 78.1378 54.6378 77.4469 60.4411C77.3893 60.8183 77.4469 61.3986 77.706 61.6017C79.6637 63.1976 81.6791 64.7355 83.6945 66.3024C89.6829 53.361 87.9843 35.719 78.5121 23.6772ZM40.1052 12.0996C40.1052 6.15122 36.3912 2.61121 31.2376 2.93039C26.919 3.19154 23.5505 7.60204 24.1263 12.3027C24.7597 17.2065 27.3509 21.0947 30.5755 24.6347C31.468 25.5923 32.6772 25.5633 33.6561 24.6347C34.2895 24.0544 34.8365 23.358 35.3547 22.6616C37.9171 19.2957 39.9325 15.6686 40.1052 12.0996ZM74.6541 60.383C74.7117 54.0574 71.0265 50.4014 66.2185 50.5755C61.8135 50.7496 58.3586 54.986 58.7328 59.6286C59.0783 63.9811 61.2089 67.4631 63.7712 70.7709C66.1897 73.8467 67.1973 73.8467 69.587 70.8C72.3221 67.318 74.539 63.6039 74.6541 60.383Z" fill="white"/>
<path d="M36.939 11.0841C36.9102 13.7246 34.7797 15.8138 32.1597 15.8138C29.367 15.8138 27.2365 13.6376 27.2941 10.852C27.3517 8.21147 29.4822 6.09326 32.0734 6.09326C34.8373 6.12228 36.9678 8.2695 36.939 11.0841ZM34.1175 11.0261C34.1463 9.80737 33.2826 8.93688 32.0734 8.93688C30.9505 8.93688 30.058 9.80737 30.058 10.91C30.058 12.0126 31.0657 13.0572 32.131 13.0572C33.1962 13.0862 34.0887 12.1577 34.1175 11.0261Z" fill="white"/>
<path d="M71.4875 58.7583C71.4875 61.4859 69.3282 63.6041 66.6219 63.6041C63.9443 63.6041 61.8426 61.3988 61.8714 58.6713C61.9002 55.9728 64.1171 53.7385 66.737 53.7965C69.3858 53.8255 71.4875 56.0308 71.4875 58.7583ZM66.737 56.6401C65.5854 56.6111 64.6065 57.5977 64.6065 58.7003C64.6065 59.7739 65.5278 60.7024 66.6219 60.7315C67.8023 60.7605 68.7524 59.8319 68.7236 58.6713C68.7236 57.5687 67.8311 56.6691 66.737 56.6401Z" fill="white"/>
</g>
<defs>
<clipPath id="clip0_72_2740">
<rect width="90" height="95" fill="white"/>
</clipPath>
</defs>
</svg>
