<svg width="94" height="98" viewBox="0 0 94 98" fill="none" xmlns="http://www.w3.org/2000/svg">
<g clip-path="url(#clip0_72_2749)">
<path d="M74.984 48.9455C74.984 53.3918 74.948 57.8016 75.0201 62.2479C75.0561 63.7785 74.4438 64.6897 73.1112 65.4186C64.8998 69.8284 56.7243 74.3475 48.5128 78.6845C47.7204 79.1218 46.3158 79.1947 45.5595 78.7573C37.348 74.384 29.1726 69.8284 20.9611 65.4186C19.5565 64.6532 18.9802 63.7057 19.0162 62.1021C19.0522 53.2824 19.0522 44.4993 19.0162 35.6796C19.0162 34.2218 19.5204 33.3472 20.817 32.6547C28.9204 28.2813 37.0239 23.908 45.0553 19.4617C46.4239 18.6964 47.5044 18.6599 48.909 19.4252C56.9044 23.8351 64.9358 28.2084 73.0032 32.5454C74.4798 33.3107 75.0921 34.2947 75.0561 35.9712C74.912 40.3445 74.984 44.645 74.984 48.9455ZM48.7649 73.8737C49.2331 73.728 49.4852 73.6915 49.6653 73.5822C56.4722 69.8648 63.2791 66.1839 70.0499 62.4301C70.5542 62.1385 70.9503 61.191 70.9503 60.5714C71.0224 53.6104 70.9863 46.6131 70.9863 39.6521C70.9863 39.2512 70.9143 38.8868 70.8423 38.4494C70.5181 38.5223 70.3381 38.4859 70.194 38.5588C63.3511 42.021 56.5082 45.4833 49.6653 49.0184C49.2331 49.2371 48.8009 49.8931 48.8009 50.3669C48.7289 58.1296 48.7649 65.8923 48.7649 73.8737ZM23.122 38.4859C23.086 38.8139 23.0139 39.069 23.0139 39.2877C23.0139 46.4673 22.9779 53.6105 23.0499 60.7901C23.0499 61.4096 23.6982 62.3207 24.2745 62.6488C30.145 65.9288 36.0875 69.1359 41.994 72.3431C42.8224 72.7804 43.6507 73.2177 44.4791 73.6551C44.6231 73.4 44.7312 73.2906 44.7312 73.2177C44.7312 65.6372 44.7672 58.0203 44.7312 50.4398C44.7312 50.0753 44.6231 49.4557 44.371 49.31C42.3181 48.1437 40.1932 47.0868 37.8522 45.8842C37.8522 48.2895 37.8883 50.2575 37.8522 52.262C37.8162 54.5945 36.5197 55.3962 34.3948 54.3758C32.486 53.4647 30.6492 52.4442 28.7404 51.5695C27.4798 50.9864 26.9396 50.1117 27.0116 48.7268C27.0837 47.0868 26.7955 45.4104 27.0837 43.8068C27.5879 40.8183 26.2193 39.2877 23.6262 38.5223C23.5181 38.5223 23.4101 38.5223 23.122 38.4859ZM40.3733 42.6041C42.2461 43.5881 43.7948 44.317 45.3074 45.2281C46.3519 45.8477 47.2162 45.8113 48.2967 45.2646C54.5273 42.021 60.794 38.8868 67.0607 35.6796C67.4929 35.461 67.925 35.1694 68.5373 34.7685C66.6285 33.7116 64.8998 32.8369 63.2791 31.8529C62.3427 31.2698 61.6224 31.3062 60.6499 31.8165C54.4193 35.1694 48.1166 38.4494 41.8499 41.7295C41.4178 41.9481 41.0216 42.2032 40.3733 42.6041ZM25.463 34.7321C28.8124 37.0281 28.8124 37.0281 31.9097 35.3881C36.3396 33.0556 40.7335 30.7596 45.1634 28.4271C47.0722 27.4431 48.945 26.4226 51.1059 25.2564C49.7373 24.4911 48.6929 23.8351 47.5404 23.3248C47.1802 23.1791 46.604 23.2155 46.2078 23.4342C39.3649 27.1515 32.522 30.9054 25.463 34.7321ZM33.8906 49.3829C33.8906 47.3055 33.9626 45.3375 33.8545 43.4059C33.7825 41.9117 34.3948 41.0734 35.6913 40.4174C42.2101 37.0645 48.6929 33.6023 55.1756 30.1765C55.8959 29.7756 56.6523 29.4111 57.4806 28.9373C56.2921 27.844 55.3197 27.516 53.8791 28.3178C47.9005 31.5614 41.994 34.9507 35.7994 37.757C31.9457 39.4699 30.3971 41.693 30.9013 45.957C31.1534 48.0344 31.7296 49.0184 33.8906 49.3829Z" fill="white"/>
<path d="M42.3905 89.6177C41.7422 88.8159 41.0939 88.3057 41.0219 87.759C40.9139 86.9573 40.9859 85.791 41.4541 85.3537C41.9223 84.9528 43.3629 84.8799 43.7951 85.2808C45.5238 86.8844 47.0725 88.6702 48.5851 90.456C49.3775 91.4035 49.0533 92.3875 48.189 93.1893C46.7844 94.5013 45.3438 95.7769 43.9392 97.1254C42.9667 98.0365 41.9223 98.3645 40.9139 97.3805C39.9054 96.3965 40.1576 95.3031 41.0939 94.3556C41.202 94.2462 41.274 94.064 41.4901 93.7724C39.5813 93.5173 37.7445 93.3351 35.9798 92.9706C18.6924 89.3626 7.77977 78.4656 2.4495 61.8833C-6.55433 33.9301 10.8411 5.43029 39.5453 0.656028C65.6924 -3.71735 90.2549 14.6873 93.7123 41.2555C96.1614 59.9517 86.2932 78.9759 69.474 87.9777C68.2135 88.6702 66.9169 89.1075 66.0526 87.5404C65.1882 85.9368 66.3407 85.135 67.6012 84.4426C80.3507 77.2265 88.0219 66.366 89.7867 51.6787C92.1277 31.9621 80.4587 13.4846 61.8388 6.70586C37.3844 -2.18666 10.8051 12.3184 5.07862 37.6839C0.468661 57.6557 11.0212 79.2674 28.9928 86.775C33.1706 88.5244 37.5284 89.5448 42.3905 89.6177Z" fill="white"/>
</g>
<defs>
<clipPath id="clip0_72_2749">
<rect width="94" height="98" fill="white"/>
</clipPath>
</defs>
</svg>
