<svg width="97" height="76" viewBox="0 0 97 76" fill="none" xmlns="http://www.w3.org/2000/svg">
<path d="M18.8 37.2824C8.15742 37.2824 0.958252 29.8659 0.958252 18.877C0.958252 8.98829 9.21692 0.75 20.4028 0.75C32.655 0.75 41.7083 10.6387 41.7083 25.7433C41.7083 60.0752 16.6742 73.808 0.958252 75.4583V60.3537C11.6144 58.4316 23.5949 47.7212 24.1314 35.9037C23.5949 36.1753 21.4691 37.2824 18.8 37.2824Z" fill="#F0F2F3"/>
<path d="M73.1332 37.2824C62.4839 37.2824 55.2915 29.8659 55.2915 18.877C55.2915 8.98829 63.5502 0.75 74.736 0.75C86.9882 0.75 96.0415 10.6387 96.0415 25.7433C96.0415 60.0752 71.0074 73.808 55.2915 75.4583V60.3537C65.9476 58.4316 77.9281 47.7212 78.4647 35.9037C77.9281 36.1753 75.8023 37.2824 73.1332 37.2824Z" fill="#F0F2F3"/>
</svg>
