<svg width="156" height="156" viewBox="0 0 156 156" fill="none" xmlns="http://www.w3.org/2000/svg">
<rect width="156" height="156" rx="12" fill="black"/>
<g clip-path="url(#clip0_59_3100)">
<path d="M77.7621 51.7292C63.0718 51.7292 51.2226 63.637 51.2226 78.4C51.2226 93.163 63.0718 105.071 77.7621 105.071C92.4524 105.071 104.302 93.163 104.302 78.4C104.302 63.637 92.4524 51.7292 77.7621 51.7292ZM77.7621 95.7395C68.2689 95.7395 60.508 87.9635 60.508 78.4C60.508 68.8366 68.2458 61.0605 77.7621 61.0605C87.2784 61.0605 95.0162 68.8366 95.0162 78.4C95.0162 87.9635 87.2553 95.7395 77.7621 95.7395ZM111.577 50.6382C111.577 54.0968 108.806 56.8591 105.387 56.8591C101.946 56.8591 99.1969 54.0736 99.1969 50.6382C99.1969 47.2028 101.969 44.4173 105.387 44.4173C108.806 44.4173 111.577 47.2028 111.577 50.6382ZM129.155 56.9519C128.762 48.6187 126.868 41.2372 120.793 35.1556C114.742 29.074 107.397 27.1706 99.1046 26.7528C90.5583 26.2653 64.9428 26.2653 56.3966 26.7528C48.1275 27.1474 40.7824 29.0508 34.7076 35.1324C28.6329 41.214 26.762 48.5955 26.3462 56.9287C25.8612 65.5172 25.8612 91.2596 26.3462 99.8481C26.7389 108.181 28.6329 115.563 34.7076 121.644C40.7824 127.726 48.1044 129.629 56.3966 130.047C64.9428 130.535 90.5583 130.535 99.1046 130.047C107.397 129.653 114.742 127.749 120.793 121.644C126.845 115.563 128.739 108.181 129.155 99.8481C129.64 91.2596 129.64 65.5404 129.155 56.9519ZM118.114 109.063C116.312 113.613 112.825 117.118 108.274 118.952C101.461 121.668 85.292 121.041 77.7621 121.041C70.2322 121.041 54.0406 121.644 47.2498 118.952C42.7226 117.141 39.2348 113.636 37.4101 109.063C34.7076 102.216 35.3313 85.9672 35.3313 78.4C35.3313 70.8328 34.7307 54.5611 37.4101 47.7367C39.2117 43.1871 42.6995 39.682 47.2498 37.8482C54.0637 35.1324 70.2322 35.7591 77.7621 35.7591C85.292 35.7591 101.484 35.1556 108.274 37.8482C112.802 39.6588 116.289 43.1638 118.114 47.7367C120.817 54.5843 120.193 70.8328 120.193 78.4C120.193 85.9672 120.817 102.239 118.114 109.063Z" fill="white"/>
</g>
<defs>
<clipPath id="clip0_59_3100">
<rect width="103.479" height="118.847" fill="white" transform="translate(26 19)"/>
</clipPath>
</defs>
</svg>
