<svg width="30" height="30" viewBox="0 0 30 30" fill="none" xmlns="http://www.w3.org/2000/svg">
<rect x="0.28125" y="0.589844" width="29" height="29" rx="14.5" fill="#0073B2"/>
<path d="M11.5668 20.0898H9.02383V11.9141H11.5668V20.0898ZM10.2816 10.8203C9.48867 10.8203 8.83242 10.1367 8.83242 9.31641C8.83242 8.52344 9.48867 7.86719 10.2816 7.86719C11.102 7.86719 11.7582 8.52344 11.7582 9.31641C11.7582 10.1367 11.102 10.8203 10.2816 10.8203ZM21.0551 20.0898H18.5395V16.125C18.5395 15.168 18.5121 13.9648 17.1996 13.9648C15.8871 13.9648 15.6957 14.9766 15.6957 16.043V20.0898H13.1527V11.9141H15.5863V13.0352H15.6137C15.9691 12.4062 16.7895 11.7227 18.0199 11.7227C20.5902 11.7227 21.0824 13.418 21.0824 15.6055V20.0898H21.0551Z" fill="white"/>
</svg>
