<svg width="30" height="30" viewBox="0 0 30 30" fill="none" xmlns="http://www.w3.org/2000/svg">
<rect x="0.919922" y="0.589844" width="29" height="29" rx="14.5" fill="#DD4B39"/>
<path d="M17.3762 14.1016C17.4035 14.375 17.4582 14.6211 17.4582 14.9766C17.4582 17.9844 15.4348 20.0898 12.3996 20.0898C9.50117 20.0898 7.14961 17.7656 7.14961 14.8398C7.14961 11.9414 9.50117 9.58984 12.3996 9.58984C13.8215 9.58984 14.9973 10.1094 15.927 10.9844L14.5051 12.3516C14.1223 11.9688 13.4387 11.5312 12.3996 11.5312C10.6223 11.5312 9.1457 13.0078 9.1457 14.8398C9.1457 16.6992 10.6223 18.1758 12.3996 18.1758C14.4777 18.1758 15.2707 16.6719 15.3801 15.9062H12.3996V14.1016H17.3762ZM22.4348 14.2656H23.966V15.7969H22.4348V17.3281H20.9035V15.7969H19.3723V14.2656H20.9035V12.7617H22.4348V14.2656Z" fill="white"/>
</svg>
