<svg width="30" height="30" viewBox="0 0 30 30" fill="none" xmlns="http://www.w3.org/2000/svg">
<rect x="0.640625" y="0.589844" width="29" height="29" rx="14.5" fill="#1AA9E1"/>
<path d="M21.4968 11.3938C21.1422 11.9072 20.7082 12.3552 20.1948 12.7378V13.0598C20.1948 13.7692 20.0968 14.4692 19.9008 15.1598C19.7048 15.8505 19.3968 16.5225 18.9768 17.1758C18.5568 17.8292 18.0575 18.3938 17.4788 18.8698C16.9002 19.3458 16.2048 19.7378 15.3928 20.0458C14.5808 20.3538 13.7128 20.4985 12.7888 20.4798C11.3328 20.4798 10.0028 20.0925 8.79883 19.3178C8.97616 19.3365 9.18149 19.3458 9.41483 19.3458C10.6282 19.3458 11.7062 18.9725 12.6488 18.2258C12.0795 18.2165 11.5755 18.0438 11.1368 17.7078C10.6982 17.3718 10.3902 16.9425 10.2128 16.4198C10.3902 16.4478 10.5535 16.4618 10.7028 16.4618C10.9362 16.4618 11.1695 16.4338 11.4028 16.3778C10.7868 16.2565 10.2828 15.9578 9.89083 15.4818C9.49883 15.0058 9.30283 14.4505 9.30283 13.8158V13.7878C9.66683 13.9932 10.0588 14.1052 10.4788 14.1238C10.1242 13.8812 9.84416 13.5732 9.63883 13.1998C9.43349 12.8265 9.32616 12.4112 9.31683 11.9538C9.31683 11.4778 9.43816 11.0392 9.68083 10.6378C10.3342 11.4405 11.1228 12.0798 12.0468 12.5558C12.9708 13.0318 13.9742 13.2978 15.0568 13.3538C15.0102 13.1485 14.9868 12.9525 14.9868 12.7658C14.9868 12.0378 15.2388 11.4265 15.7428 10.9318C16.2468 10.4372 16.8582 10.1805 17.5768 10.1618C18.3422 10.1618 18.9815 10.4372 19.4948 10.9878C20.0828 10.8665 20.6335 10.6518 21.1468 10.3438C20.9508 10.9598 20.5682 11.4452 19.9988 11.7998C20.5028 11.7345 21.0022 11.5992 21.4968 11.3938Z" fill="white"/>
</svg>
