<svg width="247" height="134" viewBox="0 0 247 134" fill="none" xmlns="http://www.w3.org/2000/svg">
<path d="M245.309 113.896C250.152 121.733 244.095 132.627 233.424 133.878C231.972 133.991 230.514 134.026 229.058 133.983C160.059 133.983 91.0489 133.983 22.0269 133.983C18.0295 134.213 14.0189 133.904 10.1066 133.062C7.24676 132.343 4.70666 130.715 2.87956 128.428C1.05246 126.141 0.0402924 123.324 -0.000225496 120.412C-0.387594 114.435 2.79939 110.369 7.888 107.728C12.6597 105.122 17.6074 102.811 22.8897 100.118C22.8897 103.28 23.0306 105.886 22.8897 108.475C22.8897 109.205 21.8509 110.074 21.1289 110.508C18.118 112.246 15.0015 113.671 11.9554 115.287C9.82484 116.399 8.43384 117.962 8.85642 120.499C9.02386 121.721 9.60292 122.851 10.5004 123.708C11.3979 124.566 12.5616 125.1 13.8042 125.225C16.4634 125.521 19.141 125.626 21.8156 125.538H224.057C226.399 125.538 228.741 125.642 231.1 125.538C232.814 125.541 234.481 124.99 235.848 123.971C237.215 122.951 238.206 121.519 238.671 119.891C239.569 117.476 242.862 115.982 245.309 113.896Z" fill="black"/>
<path d="M169.597 73.9675C167.607 73.5158 165.635 72.925 163.628 72.647C161.898 72.2182 160.093 72.1767 158.345 72.5254C154.524 73.8459 151.302 72.9598 147.992 71.1006C140.79 67.1737 133.413 63.5249 125.982 59.9976C124.426 59.3643 122.679 59.3643 121.123 59.9976C113.182 63.7855 105.417 67.9382 97.4757 71.7087C95.573 72.4876 93.4989 72.7689 91.4538 72.5254C81.5407 71.7087 72.7897 73.8285 66.3453 81.8734C65.0011 83.8895 63.7611 85.9714 62.6301 88.1112C62.0139 89.0669 61.2567 90.3005 60.3059 90.6133C58.2987 91.2388 55.8864 90.7349 54.7419 93.3065C53.6377 93.4946 52.5021 93.2717 51.5549 92.681C50.0231 91.2909 51.4493 85.7308 53.3157 84.6882C67.2492 77.6569 81.171 70.6256 95.081 63.5944C102.318 59.9455 109.502 56.1229 116.826 52.6304C117.266 52.4787 117.671 52.2423 118.018 51.935C118.364 51.6277 118.646 51.2556 118.845 50.8403C119.045 50.425 119.16 49.9746 119.182 49.5154C119.204 49.0561 119.133 48.5971 118.975 48.1649C118.716 47.5765 118.338 47.0473 117.862 46.6106C117.386 46.174 116.824 45.8395 116.21 45.6281C105.135 41.9792 98.9371 32.3184 100.205 20.3988C100.827 15.1102 103.289 10.1983 107.171 6.50061C111.053 2.80296 116.115 0.548487 121.492 0.121583C127.248 -0.508982 133.027 1.08113 137.622 4.55925C142.216 8.03737 145.269 13.134 146.143 18.7829C146.601 21.7715 145.104 24.1867 142.622 24.5516C140.139 24.9164 138.237 23.4048 137.727 20.3988C137.284 17.048 135.6 13.9776 132.999 11.7798C130.397 9.582 127.064 8.4124 123.641 8.49658C115.207 8.89622 109.326 14.2826 108.815 22.119C108.216 31.2064 113.305 37.2531 122.901 38.3999C126.299 38.8169 128.025 40.4154 127.567 43.4735C126.563 50.1631 130.103 52.9953 135.807 55.6364C146.566 60.4494 156.937 66.0617 167.501 71.4655C168.409 72.0191 169.263 72.6531 170.054 73.3594L169.597 73.9675Z" fill="black"/>
<path d="M147.358 86.617C152.218 99.5444 149.682 108.719 140.421 113.393C132.832 117.233 119.292 116.677 113.287 107.572C110.881 103.886 109.863 99.4817 110.414 95.1303C110.964 90.7789 113.047 86.7568 116.298 83.7674C124.732 76.5566 137.163 77.5817 146.883 86.3216C150.033 82.7141 154.327 80.2645 159.067 79.3714C165.142 78.2594 170.459 82.0299 170.6 88.1634C170.706 93.0981 169.984 98.0327 169.72 102.967C169.474 105.027 169.54 107.112 169.914 109.153C170.088 109.997 170.432 110.797 170.925 111.507C171.418 112.218 172.05 112.823 172.784 113.288C173.332 113.523 173.924 113.642 174.522 113.638C175.12 113.634 175.71 113.507 176.256 113.265C176.801 113.023 177.289 112.672 177.689 112.233C178.088 111.794 178.391 111.278 178.576 110.717C179.837 107.013 180.432 103.12 180.337 99.2143C179.936 91.772 176.629 84.7724 171.111 79.6842C177.309 79.6842 182.838 79.5799 188.366 79.8058C189.176 79.8058 190.514 81.387 190.603 82.3253C191.747 93.2371 189.194 103.176 181.429 111.29C176.147 116.903 167.501 116.503 162.483 113.827C156.743 110.752 154.384 104.601 155.687 97.3203C156.173 95.2765 156.269 93.161 155.968 91.0825C155.686 89.0965 154.67 87.2833 153.116 85.9915C151.813 85.1401 149.471 86.2869 147.358 86.617ZM123.535 81.665C119.837 81.7692 117.936 84.4103 119.027 88.0766C121.686 97.2337 126.984 105.431 134.276 111.673C135.034 112.2 135.912 112.537 136.832 112.655C137.752 112.773 138.688 112.668 139.558 112.35C140.267 111.657 140.797 110.806 141.103 109.869C141.41 108.931 141.484 107.935 141.319 106.964C138.643 97.9491 133.559 89.8109 126.599 83.4025C125.67 82.6772 124.638 82.0917 123.535 81.665Z" fill="#9F1915"/>
<path d="M240.238 107.85C238.196 114.974 225.219 117.597 218.898 112.02C216.908 115.026 213.44 115.738 210.094 115.495C206.178 115.49 202.303 114.704 198.702 113.184C197.1 112.484 195.751 111.32 194.836 109.846C193.921 108.371 193.482 106.657 193.578 104.931C193.523 103.291 193.986 101.676 194.905 100.309C195.823 98.9415 197.15 97.8908 198.702 97.3028C202.039 96.1446 205.502 95.3749 209.02 95.0093C212.026 94.7956 215.043 94.7666 218.053 94.9224C218.053 91.0129 218.282 87.3988 217.912 83.8368C217.789 82.69 216.028 80.8135 215.112 80.883C214.295 80.9832 213.508 81.2533 212.804 81.6756C212.099 82.0979 211.494 82.6628 211.027 83.3329C210.054 85.5438 209.259 87.8271 208.65 90.1615C207.33 93.6366 204.336 93.9667 201.185 93.5497C199.878 93.4824 198.642 92.9385 197.718 92.0236C196.795 91.1086 196.248 89.8878 196.184 88.5977C196.008 86.9992 195.92 85.4006 195.85 83.8194C195.85 82.9854 195.85 82.1688 195.85 81.3521C195.85 80.5355 195.621 79.2149 196.73 79.9621C197.381 80.3791 197.646 81.2652 198.068 81.8734C198.491 82.4815 199.019 83.2982 199.829 83.4198C201.918 83.573 204.007 83.1328 205.851 82.1514C211.45 79.3887 217.084 78.1029 223.229 80.2053C225.838 80.9727 228.133 82.5365 229.785 84.6719C231.436 86.8074 232.359 89.4046 232.421 92.0902C232.421 94.8355 232.104 97.5808 231.91 100.326C231.91 100.656 231.822 100.969 231.787 101.299C231.153 107.919 234.358 110.387 240.238 107.85ZM216.944 96.1908C214.897 96.0085 212.836 96.0493 210.798 96.3124C210.013 96.4906 209.273 96.8242 208.622 97.2931C207.971 97.762 207.424 98.3565 207.013 99.0404C205.252 102.672 208.774 111.533 212.454 113.288C214.795 114.418 216.803 113.636 216.891 111.307C217.067 106.321 216.944 101.403 216.944 96.1908Z" fill="#9F1915"/>
<path d="M30.0732 70.4575H44.1594C44.1594 77.8074 44.4939 85.0703 43.9129 92.2464C43.772 94.1404 40.8139 95.8953 38.9651 97.4591C36.7113 99.4225 34.2815 101.16 31.922 103.002L32.7144 104.01C33.137 103.68 33.5948 103.367 33.9997 103.002C39.8103 97.7892 46.3251 97.1984 52.9632 101.264C54.0609 102.044 55.2418 102.702 56.4847 103.228C60.1647 104.444 61.9607 103.123 64.5666 97.3374C64.7603 97.9282 64.9892 98.519 65.1301 99.075C66.257 104.409 64.056 111.238 60.464 113.479C55.8156 116.468 48.2443 115.964 43.4727 112.367C42.3986 111.551 41.395 110.63 40.2857 109.935C36.2183 107.224 32.8024 108.475 31.4819 113.149C31.2973 113.949 30.813 114.65 30.1261 115.113L30.0732 70.4575Z" fill="#9F1915"/>
<path d="M87.2812 115.513C71.2582 115.825 64.5145 101.178 69.3214 89.9184C72.8429 81.5955 81.1185 78.5374 89.6934 79.163C96.085 79.6495 101.667 81.9952 105.012 87.8507C106.813 90.6706 107.782 93.9302 107.81 97.2634C107.838 100.597 106.924 103.872 105.171 106.721C101.35 113.184 95.0813 115.652 87.2812 115.513ZM80.9952 81.665C77.597 81.7693 75.484 84.1845 76.5405 87.0688C78.3122 92.1184 80.5827 96.9838 83.3194 101.595C85.8012 105.367 88.7596 108.812 92.1233 111.846C92.8419 112.359 93.6799 112.686 94.56 112.795C95.4401 112.904 96.334 112.793 97.159 112.472C97.8409 111.771 98.3534 110.927 98.6583 110.004C98.9632 109.08 99.0526 108.1 98.9198 107.138C96.3556 97.9842 91.2223 89.7323 84.1118 83.3331C83.1736 82.6108 82.1204 82.0471 80.9952 81.665Z" fill="#9F1915"/>
</svg>
