<svg width="83" height="45" viewBox="0 0 83 45" fill="none" xmlns="http://www.w3.org/2000/svg">
<g clip-path="url(#clip0_72_3445)">
<path d="M82.4319 38.2488C84.059 40.8804 82.0237 44.539 78.4381 44.9591C77.95 44.9971 77.4602 45.0088 76.9708 44.9941C53.785 44.9941 30.5954 44.9941 7.40177 44.9941C6.05851 45.0716 4.7108 44.9676 3.39614 44.6849C2.43515 44.4437 1.58159 43.8968 0.96763 43.1288C0.353666 42.3609 0.0135445 41.4148 -7.08327e-05 40.4369C-0.130239 38.4297 0.94069 37.0643 2.65063 36.1773C4.25406 35.3021 5.91667 34.526 7.69169 33.6216C7.69169 34.6836 7.73902 35.5588 7.69169 36.4282C7.69169 36.6733 7.3426 36.9651 7.10001 37.1109C6.08825 37.6945 5.04099 38.1729 4.01739 38.7156C3.30147 39.089 2.83405 39.6142 2.97605 40.4661C3.03231 40.8763 3.2269 41.2559 3.52848 41.5438C3.83006 41.8317 4.2211 42.0111 4.63865 42.0532C5.53225 42.1527 6.432 42.1878 7.33077 42.1583H75.2904C76.0773 42.1583 76.8643 42.1933 77.6571 42.1583C78.2329 42.1592 78.7932 41.9744 79.2526 41.632C79.7119 41.2896 80.0451 40.8084 80.2013 40.2619C80.5031 39.4508 81.6095 38.949 82.4319 38.2488Z" fill="#9F1915"/>
<path d="M56.99 24.8399C56.3214 24.6881 55.6588 24.4898 54.9843 24.3964C54.4031 24.2524 53.7966 24.2384 53.2092 24.3555C51.9253 24.799 50.8425 24.5014 49.7302 23.8771C47.3102 22.5583 44.8311 21.333 42.3343 20.1485C41.8113 19.9358 41.2242 19.9358 40.7013 20.1485C38.0328 21.4205 35.4235 22.8151 32.7551 24.0813C32.1157 24.3429 31.4187 24.4373 30.7315 24.3555C27.4004 24.0813 24.4598 24.7932 22.2943 27.4948C21.8426 28.1719 21.4259 28.871 21.0458 29.5896C20.8388 29.9105 20.5843 30.3248 20.2648 30.4298C19.5903 30.6399 18.7797 30.4707 18.3951 31.3343C18.0241 31.3974 17.6425 31.3226 17.3242 31.1242C16.8095 30.6574 17.2887 28.7902 17.9159 28.4401C22.598 26.0788 27.2762 23.7176 31.9504 21.3563C34.3822 20.131 36.7962 18.8472 39.2576 17.6744C39.4054 17.6234 39.5414 17.5441 39.6579 17.4409C39.7743 17.3377 39.8689 17.2127 39.936 17.0732C40.0032 16.9338 40.0416 16.7825 40.049 16.6283C40.0565 16.4741 40.0328 16.3199 39.9794 16.1748C39.8927 15.9772 39.7653 15.7995 39.6055 15.6528C39.4456 15.5062 39.2566 15.3939 39.0505 15.3229C35.3289 14.0975 33.2462 10.8532 33.6722 6.85036C33.8813 5.07432 34.7086 3.4248 36.0131 2.18305C37.3175 0.941306 39.0183 0.184207 40.8255 0.0408439C42.7595 -0.170913 44.7015 0.36308 46.2454 1.5311C47.7893 2.69913 48.8153 4.41069 49.1089 6.3077C49.2628 7.31133 48.7598 8.12241 47.9256 8.24494C47.0913 8.36748 46.4523 7.85983 46.2807 6.85036C46.132 5.72509 45.566 4.69399 44.6919 3.95592C43.8179 3.21785 42.6977 2.82507 41.5473 2.85334C38.7132 2.98755 36.737 4.79642 36.5654 7.42803C36.3643 10.4798 38.0742 12.5104 41.2988 12.8955C42.4408 13.0355 43.0206 13.5724 42.8668 14.5993C42.5295 16.8458 43.7188 17.7969 45.6358 18.6839C49.2509 20.3002 52.7359 22.1849 56.2859 23.9996C56.5909 24.1855 56.878 24.3984 57.1439 24.6356L56.99 24.8399Z" fill="#9F1915"/>
<path d="M49.5172 29.0878C51.1502 33.4291 50.2982 36.51 47.186 38.0796C44.6359 39.3692 40.0859 39.1825 38.0683 36.1249C37.2596 34.887 36.9178 33.408 37.1027 31.9467C37.2877 30.4854 37.9876 29.1348 39.0801 28.1309C41.9142 25.7093 46.0914 26.0536 49.3575 28.9886C50.416 27.7771 51.859 26.9545 53.4519 26.6546C55.4931 26.2811 57.28 27.5474 57.3273 29.6071C57.3628 31.2643 57.1202 32.9214 57.0315 34.5786C56.949 35.2704 56.9709 35.9704 57.0966 36.6559C57.1551 36.9391 57.2707 37.208 57.4363 37.4465C57.602 37.685 57.8144 37.8884 58.061 38.0446C58.2453 38.1235 58.4443 38.1635 58.6452 38.1622C58.8461 38.1608 59.0445 38.1182 59.2277 38.0369C59.4109 37.9556 59.5749 37.8375 59.7092 37.6901C59.8435 37.5427 59.9451 37.3694 60.0076 37.181C60.431 35.9371 60.6313 34.63 60.5993 33.3182C60.4644 30.819 59.3532 28.4684 57.4989 26.7596C59.5816 26.7596 61.4395 26.7246 63.2973 26.8005C63.5695 26.8005 64.0191 27.3315 64.0487 27.6465C64.4333 31.311 63.5754 34.6486 60.9661 37.3736C59.1911 39.2583 56.286 39.1241 54.5997 38.2255C52.6708 37.1927 51.878 35.1271 52.3158 32.6822C52.4794 31.9959 52.5115 31.2854 52.4105 30.5874C52.3157 29.9205 51.9743 29.3116 51.452 28.8777C51.0142 28.5918 50.2272 28.9769 49.5172 29.0878ZM41.5119 27.4248C40.2694 27.4598 39.6304 28.3468 39.9972 29.578C40.8906 32.6531 42.6707 35.406 45.1211 37.502C45.3761 37.679 45.6709 37.7922 45.9801 37.8318C46.2893 37.8715 46.6037 37.8364 46.8961 37.7295C47.1344 37.4968 47.3125 37.211 47.4154 36.8962C47.5184 36.5814 47.5432 36.2469 47.4878 35.9207C46.5886 32.8933 44.8801 30.1604 42.5414 28.0083C42.2293 27.7647 41.8824 27.5681 41.5119 27.4248Z" fill="white"/>
<path d="M80.7279 36.2182C80.0416 38.6106 75.6809 39.4917 73.5568 37.6186C72.8882 38.6281 71.7226 38.8673 70.5985 38.7856C69.2824 38.7841 67.9803 38.5201 66.7703 38.0096C66.2319 37.7746 65.7788 37.3836 65.4712 36.8885C65.1637 36.3934 65.0162 35.8177 65.0486 35.2379C65.0299 34.6874 65.1857 34.1448 65.4943 33.6857C65.8029 33.2266 66.2489 32.8738 66.7703 32.6763C67.8917 32.2874 69.0553 32.0289 70.2375 31.9061C71.2477 31.8343 72.2614 31.8246 73.2728 31.8769C73.2728 30.564 73.3497 29.3503 73.2255 28.1542C73.1841 27.769 72.5924 27.1389 72.2847 27.1622C72.01 27.1958 71.7455 27.2866 71.5089 27.4284C71.2723 27.5702 71.0689 27.7599 70.912 27.9849C70.585 28.7274 70.3179 29.4942 70.1133 30.2781C69.6695 31.4451 68.6637 31.556 67.6046 31.416C67.1654 31.3933 66.7503 31.2107 66.4398 30.9034C66.1294 30.5962 65.9456 30.1862 65.9242 29.753C65.8651 29.2161 65.8355 28.6793 65.8118 28.1483C65.8118 27.8682 65.8118 27.594 65.8118 27.3197C65.8118 27.0455 65.7349 26.602 66.1077 26.8529C66.3266 26.993 66.4153 27.2906 66.5573 27.4948C66.6993 27.699 66.8768 27.9733 67.149 28.0141C67.8509 28.0656 68.5531 27.9177 69.1725 27.5882C71.0541 26.6604 72.9474 26.2286 75.0123 26.9346C75.889 27.1923 76.6602 27.7175 77.2151 28.4346C77.7701 29.1517 78.0802 30.0239 78.1009 30.9258C78.1009 31.8477 77.9944 32.7697 77.9293 33.6916C77.9293 33.8025 77.8997 33.9075 77.8879 34.0184C77.6749 36.2415 78.7517 37.0701 80.7279 36.2182ZM72.9001 32.3029C72.2123 32.2417 71.5198 32.2554 70.8351 32.3437C70.5713 32.4035 70.3224 32.5156 70.1038 32.6731C69.8851 32.8305 69.7011 33.0302 69.563 33.2598C68.9714 34.4794 70.1547 37.4552 71.3913 38.0446C72.1782 38.4239 72.8527 38.1613 72.8823 37.3794C72.9415 35.7047 72.9001 34.0534 72.9001 32.3029Z" fill="white"/>
<path d="M10.1057 23.6612H14.8391C14.8391 26.1294 14.9515 28.5685 14.7563 30.9784C14.7089 31.6144 13.7149 32.2037 13.0937 32.7289C12.3363 33.3882 11.5198 33.9717 10.727 34.5903L10.9932 34.9287C11.1352 34.8178 11.2891 34.7128 11.4251 34.5903C13.3777 32.8397 15.5669 32.6414 17.7975 34.0068C18.1664 34.2684 18.5632 34.4895 18.9808 34.6661C20.2174 35.0746 20.8209 34.6311 21.6966 32.688C21.7617 32.8864 21.8386 33.0848 21.8859 33.2715C22.2646 35.0629 21.525 37.3561 20.318 38.1088C18.756 39.1124 16.2118 38.9432 14.6084 37.7354C14.2474 37.4611 13.9102 37.1519 13.5374 36.9185C12.1707 36.0082 11.0228 36.4283 10.5791 37.9979C10.517 38.2666 10.3543 38.5021 10.1235 38.6573L10.1057 23.6612Z" fill="white"/>
<path d="M29.3293 38.7915C23.9451 38.8965 21.6789 33.9776 23.2942 30.1964C24.4776 27.4015 27.2584 26.3745 30.1399 26.5845C32.2877 26.7479 34.1633 27.5357 35.2874 29.5021C35.8927 30.4491 36.2183 31.5437 36.2277 32.663C36.2371 33.7824 35.9299 34.8822 35.3407 35.8389C34.0568 38.0096 31.9504 38.8382 29.3293 38.7915ZM27.217 27.4248C26.0751 27.4598 25.3651 28.2709 25.7201 29.2395C26.3154 30.9352 27.0784 32.5691 27.998 34.1176C28.832 35.3844 29.8261 36.5412 30.9564 37.5603C31.1979 37.7326 31.4795 37.8422 31.7752 37.8789C32.071 37.9156 32.3713 37.8783 32.6486 37.7704C32.8777 37.535 33.0499 37.2517 33.1524 36.9415C33.2548 36.6313 33.2849 36.3023 33.2402 35.979C32.3786 32.9051 30.6536 30.134 28.2643 27.985C27.949 27.7424 27.5951 27.5531 27.217 27.4248Z" fill="white"/>
</g>
<defs>
<clipPath id="clip0_72_3445">
<rect width="83" height="45" fill="white"/>
</clipPath>
</defs>
</svg>
