<svg width="247" height="134" viewBox="0 0 247 134" fill="none" xmlns="http://www.w3.org/2000/svg">
<g clip-path="url(#clip0_30_1300)">
<path d="M245.309 113.897C250.152 121.733 244.095 132.627 233.424 133.878C231.972 133.992 230.514 134.026 229.058 133.983C160.059 133.983 91.0489 133.983 22.0269 133.983C18.0295 134.213 14.0189 133.904 10.1066 133.062C7.24676 132.344 4.70666 130.715 2.87956 128.428C1.05246 126.142 0.0402924 123.324 -0.000225496 120.412C-0.387594 114.435 2.79939 110.369 7.888 107.728C12.6597 105.122 17.6074 102.811 22.8897 100.118C22.8897 103.28 23.0306 105.886 22.8897 108.475C22.8897 109.205 21.8509 110.074 21.1289 110.508C18.118 112.246 15.0015 113.671 11.9554 115.287C9.82484 116.399 8.43384 117.962 8.85642 120.499C9.02386 121.721 9.60292 122.851 10.5004 123.708C11.3979 124.566 12.5616 125.1 13.8042 125.225C16.4634 125.521 19.141 125.626 21.8156 125.538H224.057C226.399 125.538 228.741 125.642 231.1 125.538C232.814 125.541 234.481 124.991 235.848 123.971C237.215 122.951 238.206 121.519 238.671 119.891C239.569 117.476 242.862 115.982 245.309 113.897Z" fill="black"/>
<path d="M169.597 73.9676C167.607 73.5158 165.635 72.9251 163.628 72.6471C161.898 72.2183 160.093 72.1767 158.345 72.5254C154.525 73.846 151.302 72.9598 147.992 71.1006C140.791 67.1738 133.413 63.5249 125.983 59.9977C124.426 59.3644 122.679 59.3644 121.123 59.9977C113.182 63.7855 105.417 67.9383 97.4758 71.7088C95.5731 72.4876 93.499 72.7689 91.454 72.5254C81.5409 71.7088 72.7899 73.8286 66.3455 81.8735C65.0013 83.8896 63.7613 85.9715 62.6303 88.1113C62.014 89.0669 61.2569 90.3006 60.306 90.6133C58.2988 91.2389 55.8865 90.735 54.742 93.3066C53.6379 93.4946 52.5023 93.2717 51.5551 92.681C50.0232 91.291 51.4494 85.7308 53.3158 84.6883C67.2493 77.657 81.1711 70.6257 95.0811 63.5944C102.318 59.9456 109.502 56.1229 116.827 52.6305C117.266 52.4787 117.671 52.2424 118.018 51.9351C118.364 51.6278 118.646 51.2557 118.846 50.8404C119.045 50.425 119.16 49.9747 119.182 49.5154C119.204 49.0562 119.134 48.5972 118.975 48.165C118.717 47.5766 118.338 47.0473 117.862 46.6107C117.386 46.1741 116.824 45.8395 116.21 45.6281C105.135 41.9793 98.9372 32.3185 100.205 20.3989C100.827 15.1102 103.289 10.1983 107.171 6.50067C111.053 2.80302 116.115 0.548548 121.493 0.121645C127.248 -0.508921 133.027 1.08119 137.622 4.55931C142.216 8.03743 145.27 13.1341 146.143 18.783C146.601 21.7715 145.104 24.1867 142.622 24.5516C140.139 24.9165 138.237 23.4048 137.727 20.3989C137.284 17.0481 135.6 13.9777 132.999 11.7799C130.398 9.58206 127.064 8.41246 123.641 8.49664C115.207 8.89628 109.326 14.2827 108.815 22.1191C108.216 31.2064 113.305 37.2531 122.901 38.3999C126.299 38.8169 128.025 40.4155 127.567 43.4736C126.564 50.1631 130.103 52.9953 135.808 55.6364C146.566 60.4494 156.937 66.0617 167.501 71.4655C168.409 72.0192 169.263 72.6531 170.054 73.3595L169.597 73.9676Z" fill="black"/>
<path d="M147.358 86.617C152.218 99.5444 149.682 108.719 140.421 113.393C132.832 117.233 119.291 116.677 113.287 107.572C110.88 103.886 109.863 99.4817 110.414 95.1303C110.964 90.7789 113.047 86.7568 116.298 83.7674C124.732 76.5566 137.163 77.5817 146.883 86.3216C150.033 82.7141 154.327 80.2645 159.067 79.3714C165.142 78.2594 170.459 82.0299 170.6 88.1634C170.706 93.0981 169.984 98.0327 169.72 102.967C169.474 105.027 169.539 107.112 169.913 109.153C170.088 109.997 170.432 110.797 170.924 111.507C171.417 112.218 172.049 112.823 172.783 113.288C173.332 113.523 173.924 113.642 174.522 113.638C175.12 113.634 175.71 113.507 176.256 113.265C176.801 113.023 177.289 112.672 177.688 112.233C178.088 111.794 178.391 111.278 178.576 110.717C179.836 107.013 180.432 103.12 180.337 99.2143C179.936 91.772 176.629 84.7724 171.111 79.6842C177.309 79.6842 182.837 79.5799 188.366 79.8058C189.176 79.8058 190.514 81.387 190.602 82.3253C191.747 93.2371 189.194 103.176 181.429 111.29C176.147 116.903 167.501 116.503 162.483 113.827C156.743 110.752 154.383 104.601 155.686 97.3203C156.173 95.2765 156.269 93.161 155.968 91.0825C155.686 89.0965 154.67 87.2833 153.116 85.9915C151.813 85.1401 149.471 86.2869 147.358 86.617ZM123.535 81.665C119.837 81.7692 117.936 84.4103 119.027 88.0766C121.686 97.2337 126.983 105.431 134.276 111.673C135.034 112.2 135.912 112.537 136.832 112.655C137.752 112.773 138.688 112.668 139.558 112.35C140.267 111.657 140.797 110.806 141.103 109.869C141.41 108.931 141.484 107.935 141.319 106.964C138.643 97.9491 133.558 89.8109 126.599 83.4025C125.67 82.6772 124.638 82.0917 123.535 81.665Z" fill="white"/>
<path d="M240.238 107.85C238.196 114.974 225.219 117.598 218.898 112.02C216.908 115.026 213.44 115.738 210.094 115.495C206.178 115.49 202.303 114.704 198.702 113.184C197.1 112.485 195.751 111.32 194.836 109.846C193.921 108.372 193.482 106.657 193.578 104.931C193.523 103.291 193.986 101.676 194.905 100.309C195.823 98.9416 197.15 97.8909 198.702 97.303C202.039 96.1447 205.502 95.375 209.02 95.0094C212.026 94.7957 215.043 94.7667 218.053 94.9225C218.053 91.013 218.282 87.3989 217.912 83.8369C217.789 82.6901 216.028 80.8136 215.112 80.8831C214.295 80.9833 213.508 81.2534 212.804 81.6758C212.099 82.0981 211.494 82.6629 211.027 83.333C210.054 85.544 209.259 87.8272 208.65 90.1616C207.33 93.6367 204.336 93.9669 201.185 93.5498C199.878 93.4825 198.642 92.9386 197.718 92.0237C196.795 91.1088 196.248 89.8879 196.184 88.5978C196.008 86.9993 195.92 85.4007 195.85 83.8196C195.85 82.9855 195.85 82.1689 195.85 81.3522C195.85 80.5356 195.621 79.215 196.73 79.9622C197.381 80.3792 197.646 81.2653 198.068 81.8735C198.491 82.4816 199.019 83.2983 199.829 83.4199C201.918 83.5731 204.007 83.133 205.851 82.1515C211.45 79.3888 217.084 78.103 223.229 80.2054C225.838 80.9728 228.133 82.5366 229.785 84.672C231.436 86.8075 232.359 89.4047 232.421 92.0903C232.421 94.8356 232.104 97.581 231.91 100.326C231.91 100.656 231.822 100.969 231.787 101.299C231.153 107.919 234.358 110.387 240.238 107.85ZM216.944 96.1909C214.897 96.0086 212.836 96.0494 210.798 96.3125C210.013 96.4907 209.273 96.8243 208.622 97.2932C207.971 97.7622 207.424 98.3566 207.013 99.0405C205.252 102.672 208.774 111.533 212.454 113.288C214.795 114.418 216.803 113.636 216.891 111.308C217.067 106.321 216.944 101.404 216.944 96.1909Z" fill="white"/>
<path d="M30.0732 70.4575H44.1594C44.1594 77.8074 44.4939 85.0703 43.9129 92.2464C43.772 94.1404 40.8139 95.8953 38.9651 97.4591C36.7113 99.4225 34.2815 101.16 31.922 103.002L32.7144 104.01C33.137 103.68 33.5948 103.367 33.9997 103.002C39.8103 97.7892 46.3251 97.1984 52.9632 101.264C54.0609 102.044 55.2418 102.702 56.4847 103.228C60.1647 104.444 61.9607 103.123 64.5666 97.3374C64.7603 97.9282 64.9892 98.519 65.1301 99.075C66.257 104.409 64.056 111.238 60.464 113.479C55.8156 116.468 48.2443 115.964 43.4727 112.367C42.3986 111.551 41.395 110.63 40.2857 109.935C36.2183 107.224 32.8024 108.475 31.4819 113.149C31.2973 113.949 30.813 114.65 30.1261 115.113L30.0732 70.4575Z" fill="white"/>
<path d="M87.281 115.513C71.2581 115.825 64.5144 101.178 69.3212 89.9184C72.8428 81.5955 81.1184 78.5374 89.6933 79.163C96.0849 79.6495 101.666 81.9952 105.012 87.8507C106.813 90.6706 107.782 93.9302 107.81 97.2634C107.838 100.597 106.924 103.872 105.17 106.721C101.35 113.184 95.0812 115.652 87.281 115.513ZM80.9951 81.665C77.5968 81.7693 75.4839 84.1845 76.5404 87.0688C78.312 92.1184 80.5826 96.9838 83.3193 101.595C85.8011 105.367 88.7595 108.812 92.1231 111.846C92.8418 112.359 93.6798 112.686 94.5599 112.795C95.44 112.904 96.3338 112.793 97.1589 112.472C97.8408 111.771 98.3533 110.927 98.6582 110.004C98.9631 109.08 99.0525 108.1 98.9197 107.138C96.3554 97.9842 91.2222 89.7323 84.1117 83.3331C83.1734 82.6108 82.1203 82.0471 80.9951 81.665Z" fill="white"/>
</g>
<defs>
<clipPath id="clip0_30_1300">
<rect width="247" height="134" fill="white"/>
</clipPath>
</defs>
</svg>
