<svg width="156" height="156" viewBox="0 0 156 156" fill="none" xmlns="http://www.w3.org/2000/svg">
<rect width="156" height="156" rx="12" fill="black"/>
<g clip-path="url(#clip0_59_3098)">
<path d="M124.233 68.6845C115.071 68.7065 106.134 65.8491 98.6838 60.5162V97.7096C98.6813 104.598 96.5758 111.322 92.6488 116.982C88.7218 122.641 83.1606 126.967 76.7087 129.381C70.2567 131.795 63.2217 132.181 56.5443 130.488C49.8668 128.796 43.8652 125.105 39.3419 119.91C34.8186 114.714 31.9893 108.262 31.2323 101.415C30.4752 94.5679 31.8265 87.6531 35.1055 81.5949C38.3845 75.5368 43.4349 70.6241 49.5813 67.5137C55.7277 64.4033 62.6772 63.2435 69.5006 64.1894V82.8964C66.3782 81.9142 63.0253 81.9438 59.9208 82.9809C56.8162 84.018 54.1187 86.0095 52.2135 88.6711C50.3083 91.3327 49.2929 94.5283 49.3122 97.8014C49.3314 101.075 50.3845 104.258 52.3209 106.897C54.2573 109.536 56.978 111.496 60.0946 112.496C63.2112 113.496 66.5642 113.486 69.6748 112.468C72.7854 111.449 75.4945 109.473 77.4153 106.823C79.3361 104.172 80.3702 100.983 80.3702 97.7096V25.0002H98.6838C98.6711 26.5468 98.8007 28.0912 99.0709 29.614C99.7073 33.0135 101.03 36.2473 102.96 39.1179C104.889 41.9884 107.383 44.4352 110.29 46.3086C114.426 49.0433 119.275 50.501 124.233 50.4999V68.6845Z" fill="white"/>
</g>
<defs>
<clipPath id="clip0_59_3098">
<rect width="93.2331" height="106.552" fill="white" transform="translate(31 25.0002)"/>
</clipPath>
</defs>
</svg>
