<svg width="39" height="31" viewBox="0 0 39 31" fill="none" xmlns="http://www.w3.org/2000/svg">
<g clip-path="url(#clip0_55_2653)">
<path d="M6.76666 0C5.16562 0 3.86666 1.26851 3.86666 2.83203V5.66406H0.966666C0.435 5.66406 0 6.08886 0 6.60807C0 7.12727 0.435 7.55208 0.966666 7.55208H3.86666H16.4333C16.965 7.55208 17.4 7.97688 17.4 8.49609C17.4 9.01529 16.965 9.4401 16.4333 9.4401H3.86666H2.9C2.36833 9.4401 1.93333 9.8649 1.93333 10.3841C1.93333 10.9033 2.36833 11.3281 2.9 11.3281H3.86666H14.5C15.0317 11.3281 15.4667 11.7529 15.4667 12.2721C15.4667 12.7913 15.0317 13.2161 14.5 13.2161H3.86666H0.966666C0.435 13.2161 0 13.6409 0 14.1601C0 14.6794 0.435 15.1042 0.966666 15.1042H3.86666H12.5667C13.0983 15.1042 13.5333 15.529 13.5333 16.0482C13.5333 16.5674 13.0983 16.9922 12.5667 16.9922H3.86666V24.5443C3.86666 27.6713 6.46458 30.2083 9.66666 30.2083C12.8687 30.2083 15.4667 27.6713 15.4667 24.5443H23.2C23.2 27.6713 25.7979 30.2083 29 30.2083C32.2021 30.2083 34.8 27.6713 34.8 24.5443H36.7333C37.8027 24.5443 38.6666 23.7005 38.6666 22.6562C38.6666 21.6119 37.8027 20.7682 36.7333 20.7682V16.9922V15.1042V14.0008C36.7333 12.9978 36.3285 12.0361 35.6035 11.3281L30.9333 6.76737C30.2083 6.05936 29.2235 5.66406 28.1964 5.66406H25.1333V2.83203C25.1333 1.26851 23.8344 0 22.2333 0H6.76666ZM32.8666 14.0008V15.1042H25.1333V9.4401H28.1964L32.8666 14.0008ZM9.66666 21.7122C10.4358 21.7122 11.1734 22.0106 11.7173 22.5417C12.2611 23.0728 12.5667 23.7932 12.5667 24.5443C12.5667 25.2954 12.2611 26.0157 11.7173 26.5468C11.1734 27.0779 10.4358 27.3763 9.66666 27.3763C8.89753 27.3763 8.15991 27.0779 7.61605 26.5468C7.0722 26.0157 6.76666 25.2954 6.76666 24.5443C6.76666 23.7932 7.0722 23.0728 7.61605 22.5417C8.15991 22.0106 8.89753 21.7122 9.66666 21.7122ZM26.1 24.5443C26.1 23.7932 26.4055 23.0728 26.9494 22.5417C27.4932 22.0106 28.2309 21.7122 29 21.7122C29.7691 21.7122 30.5067 22.0106 31.0506 22.5417C31.5944 23.0728 31.9 23.7932 31.9 24.5443C31.9 25.2954 31.5944 26.0157 31.0506 26.5468C30.5067 27.0779 29.7691 27.3763 29 27.3763C28.2309 27.3763 27.4932 27.0779 26.9494 26.5468C26.4055 26.0157 26.1 25.2954 26.1 24.5443Z" fill="#9F1915"/>
</g>
<defs>
<clipPath id="clip0_55_2653">
<rect width="38.6666" height="30.2083" fill="white"/>
</clipPath>
</defs>
</svg>
