<svg width="158" height="155" viewBox="0 0 158 155" fill="none" xmlns="http://www.w3.org/2000/svg">
<circle cx="90.7545" cy="87.9039" r="62.0963" stroke="#9F1915" stroke-width="10"/>
<circle cx="91" cy="88" r="43" stroke="#9F1915" stroke-width="8"/>
<circle cx="91" cy="88" r="24" stroke="#9F1915" stroke-width="6"/>
<path d="M27.769 7.63672C31.5493 4.05619 37.6482 4.09633 41.3687 7.93262L41.3696 7.93164L70.0894 36.9463H70.0884C71.9551 38.8234 72.8765 41.3685 72.8765 43.8154V58.8896L98.7983 84.9102L98.8403 84.9521L98.8813 84.9961C102.472 88.7767 102.621 94.7535 98.6948 98.5791L98.6968 98.5811C98.6834 98.5945 98.6683 98.6068 98.6548 98.6201C98.6377 98.6365 98.6222 98.6546 98.605 98.6709L98.603 98.6689C95.4465 101.746 90.619 102.336 86.8491 100.142H86.2915L84.8276 98.6768L58.9126 72.7549H43.9858C41.1048 72.8949 38.589 71.5782 36.9604 69.9492L7.95361 40.9346C6.19287 39.1734 5.26827 36.8187 5.15967 34.5088L5.14893 34.0479L5.16162 33.5518C5.41429 28.4548 9.53883 24.1641 14.936 24.1641H24.6782V14.7998C24.6783 12.431 25.5588 9.62652 27.769 7.63672Z" fill="#FF9C00" stroke="white" stroke-width="10"/>
</svg>
