<svg width="165" height="135" viewBox="0 0 165 135" fill="none" xmlns="http://www.w3.org/2000/svg">
<g clip-path="url(#clip0_28_1143)">
<path fill-rule="evenodd" clip-rule="evenodd" d="M163.632 79.2687C162.111 77.2946 127.134 30.0674 82.4243 30.0674C37.7146 30.0674 2.58559 77.2946 1.21693 79.2687C-0.151736 81.2429 -0.151736 83.8244 1.21693 85.6467C2.73766 87.6208 37.7146 134.848 82.4243 134.848C127.134 134.848 162.111 87.6208 163.632 85.6467C165.152 83.8244 165.152 81.2429 163.632 79.2687ZM82.4243 124.066C49.4243 124.066 20.9865 92.7839 12.4704 82.6096C20.8344 72.4352 49.4243 41.1529 82.4243 41.1529C115.272 41.1529 143.862 72.4352 152.378 82.6096C144.014 92.7839 115.424 124.066 82.4243 124.066Z" fill="#9F1915"/>
<path fill-rule="evenodd" clip-rule="evenodd" d="M82.4237 49.9609C64.479 49.9609 49.8799 64.5391 49.8799 82.4581C49.8799 100.377 64.479 114.955 82.4237 114.955C100.368 114.955 114.967 100.377 114.967 82.4581C114.967 64.5391 100.368 50.1128 82.4237 49.9609ZM82.4237 104.174C70.4098 104.174 60.6771 94.4547 60.6771 82.4581C60.6771 70.4615 70.4098 60.7427 82.4237 60.7427C94.4375 60.7427 104.17 70.4615 104.17 82.4581C104.17 94.4547 94.4375 104.174 82.4237 104.174Z" fill="#9F1915"/>
<path fill-rule="evenodd" clip-rule="evenodd" d="M82.424 91.7213C87.4424 91.7213 91.5484 87.6211 91.5484 82.458C91.5484 77.4468 87.4424 73.3467 82.2719 73.3467C77.2535 73.3467 73.1475 77.4468 73.1475 82.458C73.2995 87.6211 77.4055 91.7213 82.424 91.7213Z" fill="#FF9C00"/>
<path fill-rule="evenodd" clip-rule="evenodd" d="M80.2949 0.152344C82.7281 0.152344 84.705 2.12647 84.705 4.55617V22.0196C84.705 24.4493 82.7281 26.4234 80.2949 26.4234C77.8617 26.4234 75.8848 24.4493 75.8848 22.0196V4.55617C75.8848 2.12647 77.8617 0.152344 80.2949 0.152344Z" fill="#FF9C00"/>
<path fill-rule="evenodd" clip-rule="evenodd" d="M118.466 9.2637C120.595 10.4785 121.355 13.212 120.139 15.1861L111.47 30.3717C110.254 32.4977 107.669 33.257 105.54 32.0421C103.411 30.8273 102.65 28.0938 103.867 26.1197L112.535 10.7823C113.752 8.65628 116.337 8.04885 118.466 9.2637Z" fill="#FF9C00"/>
<path fill-rule="evenodd" clip-rule="evenodd" d="M42.1245 9.26356C39.9955 10.4784 39.2351 13.06 40.4517 15.1859L49.1199 30.2197C50.3365 32.3457 53.0738 33.105 55.2029 31.8901C57.3319 30.6753 57.9402 27.9419 56.8757 25.9677L48.2075 10.934C46.9909 8.65614 44.2536 8.04871 42.1245 9.26356Z" fill="#FF9C00"/>
</g>
<defs>
<clipPath id="clip0_28_1143">
<rect width="165" height="135" fill="white"/>
</clipPath>
</defs>
</svg>
