<svg width="124" height="148" viewBox="0 0 124 148" fill="none" xmlns="http://www.w3.org/2000/svg">
<path fill-rule="evenodd" clip-rule="evenodd" d="M99.0736 40.7559H22.9265L-1 70.9831L61.2849 147.029L123.063 70.9831L99.0736 40.7559ZM33.0541 74.3559L50.5875 122.91L10.8366 74.3559H33.0541ZM40.6499 74.3559H81.3503L61.1582 130.992L40.6499 74.3559ZM89.0092 74.3559H111.227L71.539 123.165L89.0092 74.3559ZM95.4023 47.4377L111.353 67.5468H89.0092L81.8565 47.4377H95.4023ZM74.2608 47.4377L81.4135 67.5468H40.7131L47.8657 47.4377H74.2608ZM26.5977 47.4377H40.1434L32.9908 67.5468H10.6468L26.5977 47.4377Z" fill="#9F1915"/>
<path fill-rule="evenodd" clip-rule="evenodd" d="M61.0314 0.0283203C63.2468 0.0283203 65.0825 1.81013 65.0825 4.0374V20.0101C65.0825 22.2374 63.2468 24.0192 61.0314 24.0192C58.816 24.0192 57.0436 22.2374 57.0436 20.0101V4.0374C56.9803 1.81013 58.7527 0.0283203 61.0314 0.0283203Z" fill="#FF9C00"/>
<path fill-rule="evenodd" clip-rule="evenodd" d="M95.8451 8.30104C97.744 9.38285 98.4402 11.8647 97.3642 13.8374L89.3888 27.7101C88.3127 29.6192 85.844 30.3192 83.9451 29.1738C83.9451 29.1738 83.9452 29.1738 83.8819 29.1738C81.983 28.0919 81.2866 25.6101 82.3627 23.6374L90.3382 9.76466C91.4776 7.85557 93.8829 7.15558 95.8451 8.30104Z" fill="#FF9C00"/>
<path fill-rule="evenodd" clip-rule="evenodd" d="M26.1543 8.30104C24.2554 9.38285 23.5591 11.8647 24.6985 13.7737C24.6985 13.7737 24.6985 13.7738 24.6985 13.8374L32.674 27.7101C33.8133 29.6192 36.282 30.3192 38.1809 29.1738C40.0798 28.0919 40.776 25.6101 39.6367 23.701C39.6367 23.701 39.6367 23.701 39.6367 23.6374L31.6612 9.76466C30.5218 7.85557 28.0533 7.15558 26.1543 8.30104Z" fill="#FF9C00"/>
</svg>
